<?xml version="1.0" encoding="UTF-8"?>
<svg version="1.1" xmlns="http://www.w3.org/2000/svg" width="247" height="155">
<path d="M0 0 C1.82460793 1.82460793 1.17390559 4.60734879 1.1875 7.0625 C1.17024394 14.28915449 0.72337743 21.48268486 0.1875 28.6875 C0.08248169 30.26446655 0.08248169 30.26446655 -0.0246582 31.87329102 C-0.10546631 32.86772217 -0.18627441 33.86215332 -0.26953125 34.88671875 C-0.37164917 36.22029419 -0.37164917 36.22029419 -0.47583008 37.58081055 C-1.07898925 40.36455728 -2.15240106 41.86519666 -4 44 C-3.67 44.66 -3.34 45.32 -3 46 C-2.67 45.67 -2.34 45.34 -2 45 C4.08195836 44.43569459 8.14242436 45.96723249 13.5 48.5 C14.27593506 48.85586182 15.05187012 49.21172363 15.85131836 49.57836914 C35.89353571 58.89353571 35.89353571 58.89353571 39 62 C39.04063832 63.66617115 39.042721 65.33388095 39 67 C38.38125 67.2475 37.7625 67.495 37.125 67.75 C34.89652827 68.78807075 34.89652827 68.78807075 34.203125 70.73828125 C32.55156242 73.84300441 30.1387385 76.03291067 27.625 78.4375 C24.9372864 81.0281972 22.33018189 83.57463646 20.03515625 86.53125 C17.60350307 89.48097132 14.83892778 91.76248567 11.8125 94.0625 C11.23878662 94.50005615 10.66507324 94.9376123 10.07397461 95.38842773 C-2.01561961 104.38419488 -14.9264076 105.20365135 -29.59375 103.609375 C-41.69738692 101.44404546 -53.41542616 95.69239345 -63 88 C-63 87.01 -63 86.02 -63 85 C-59.45052399 83.36710265 -56.08596734 82.61806803 -52.22705078 82.0637207 C-38.21025403 80.03218632 -27.11638672 74.93848238 -16 66 C-16.62003906 66.43570313 -17.24007812 66.87140625 -17.87890625 67.3203125 C-28.41562823 74.406143 -39.41001859 78.6258601 -51.6875 81.5 C-52.45392822 81.68457764 -53.22035645 81.86915527 -54.01000977 82.05932617 C-57.09245902 82.72380419 -59.41250025 83.18680437 -62.45703125 82.21875 C-64 81 -64 81 -65 79 C-66.65 79 -68.3 79 -70 79 C-71.21693876 76.56612247 -71.31959896 74.58161154 -71.5625 71.875 C-71.64628906 70.96492188 -71.73007813 70.05484375 -71.81640625 69.1171875 C-71.87699219 68.41851562 -71.93757813 67.71984375 -72 67 C-72.06058594 67.69867188 -72.12117188 68.39734375 -72.18359375 69.1171875 C-72.30927734 70.48230469 -72.30927734 70.48230469 -72.4375 71.875 C-72.55931641 73.23238281 -72.55931641 73.23238281 -72.68359375 74.6171875 C-73 77 -73 77 -74 79 C-78.40114397 78.49701212 -80.71195019 76.91227269 -84 74 C-83.01 74.99 -83.01 74.99 -82 76 C-81.875 78.625 -81.875 78.625 -82 81 C-99.20882712 80.2617515 -113.96521298 76.32468471 -128 66 C-128 65.34 -128 64.68 -128 64 C-128.66 64 -129.32 64 -130 64 C-134.23504093 59.35207207 -138.68272659 53.56932591 -139.25 47.1875 C-139 45 -139 45 -138 44 C-125.48711656 42.54334754 -113.28430212 47.07787357 -103 54 C-98.03404039 58.03308867 -93.50421504 62.46500444 -89 67 C-89.53109375 66.18917969 -90.0621875 65.37835938 -90.609375 64.54296875 C-99.17377998 51.11810766 -104.10120367 37.75530239 -101.62109375 21.51953125 C-100.88715559 18.34683794 -100.33438646 16.33438646 -98 14 C-94.10883087 14.26835649 -91.77789583 16.4205253 -89 19 C-78.6361439 31.36534153 -74.67173761 43.38644119 -72 59 C-71.87625 57.9584375 -71.7525 56.916875 -71.625 55.84375 C-69.6238195 41.21087044 -64.50368197 26.94145356 -53 17 C-50.99273555 15.68460117 -49.25823348 14.84683756 -47 14 C-42.74360471 17.70718299 -42.18135625 20.40172301 -41.796875 25.91015625 C-41.60455525 38.8436593 -44.81399324 48.7090362 -51 60 C-50.67 60.33 -50.34 60.66 -50 61 C-46.7 58.03 -43.4 55.06 -40 52 C-40.99 50.68 -41.98 49.36 -43 48 C-42.85546875 44.86328125 -42.85546875 44.86328125 -42.1875 41.3125 C-41.00018437 34.19598085 -40.09498848 27.88844242 -42.0625 20.875 C-43.05760006 16.76191976 -42.70645502 14.12016423 -42 10 C-32.85108 6.75570213 -23.73247826 3.74277327 -14.25 1.625 C-13.51281738 1.45774414 -12.77563477 1.29048828 -12.01611328 1.11816406 C-7.95505288 0.25053572 -4.15215395 -0.26747004 0 0 Z M-37 50 C-33.06924356 49.42547254 -33.06924356 49.42547254 -30 47 C-33.51716303 47 -34.37121748 47.82445585 -37 50 Z M-7 53 C-6 55 -6 55 -6 55 Z M-8 55 C-8 58 -8 58 -8 58 Z M-11 59 C-11.66 60.32 -12.32 61.64 -13 63 C-12.01 62.34 -11.02 61.68 -10 61 C-10.33 60.34 -10.66 59.68 -11 59 Z " fill="#FBF6E1" transform="translate(192,37)"/>
<path d="M0 0 C1.30047167 2.2149586 2.34940266 4.28933088 3.375 6.625 C10.16987193 21.00189947 21.21524474 28.41536537 36 34 C42.4813802 36.01178548 49.10107462 37.68541073 55.8515625 38.41796875 C57.41003906 38.70607422 57.41003906 38.70607422 59 39 C59.66 39.99 60.32 40.98 61 42 C52.44936094 51.72899568 35.41241119 57.63783169 23 59 C6.44475954 59.86602839 -5.00537605 55.5959142 -18.125 45.625 C-21.00895423 42.9918244 -23.47541928 40.22366973 -26 37.25390625 C-29.09134653 33.77010361 -32.43224987 30.54743335 -35.765625 27.296875 C-39.76062727 23.19012442 -39.76062727 23.19012442 -41 21 C-40.87915039 18.55761719 -40.87915039 18.55761719 -40 16 C-37.8737793 14.41015625 -37.8737793 14.41015625 -35.07421875 13.0625 C-34.04876953 12.55976562 -33.02332031 12.05703125 -31.96679688 11.5390625 C-30.88462891 11.03117187 -29.80246094 10.52328125 -28.6875 10 C-27.64787109 9.49210937 -26.60824219 8.98421875 -25.53710938 8.4609375 C-22.37567771 6.93216087 -19.19591908 5.45521076 -16 4 C-14.90123535 3.49726562 -13.8024707 2.99453125 -12.67041016 2.4765625 C-11.60999512 2.00992188 -10.54958008 1.54328125 -9.45703125 1.0625 C-8.50417236 0.64097656 -7.55131348 0.21945313 -6.56958008 -0.21484375 C-3.81124567 -1.05767543 -2.60685009 -1.19728411 0 0 Z " fill="#ED5A99" transform="translate(50,82)"/>
<path d="M0 0 C4.95602465 0.62335093 9.16749781 2.06038466 13.75 3.9375 C14.42160156 4.20240234 15.09320313 4.46730469 15.78515625 4.74023438 C18.65049971 5.89728188 20.79293383 6.79293383 23 9 C25.46692199 10.06155005 27.97262027 10.97348837 30.4921875 11.90234375 C32.99272283 12.99681482 34.89269776 14.27985329 37 16 C36.52347262 20.28874643 33.99185608 22.08882498 31 25 C29.42786928 26.66902246 27.86030103 28.34235206 26.296875 30.01953125 C13.39241984 43.62595133 2.5594224 54.84765548 -17.12573242 55.76904297 C-27.01751716 55.90393439 -35.39759035 55.19110927 -44 50 C-44.66515625 49.63132813 -45.3303125 49.26265625 -46.015625 48.8828125 C-47.68963491 47.94391129 -49.34565998 46.97314119 -51 46 C-52.24188757 45.43998389 -53.49209173 44.89803878 -54.75 44.375 C-58 43 -58 43 -61 41 C-61 40.34 -61 39.68 -61 39 C-60.35562988 38.86424561 -59.71125977 38.72849121 -59.04736328 38.58862305 C-56.07230588 37.95925325 -53.09866548 37.32341253 -50.125 36.6875 C-48.60519531 36.36749023 -48.60519531 36.36749023 -47.0546875 36.04101562 C-40.59715225 34.65430132 -34.29274235 33.00715278 -28 31 C-28 30.34 -28 29.68 -28 29 C-26.05859375 27.703125 -26.05859375 27.703125 -23.4375 26.25 C-12.11390204 19.66056164 -5.9646193 11.51929912 0 0 Z " fill="#7CA530" transform="translate(192,84)"/>
<path d="M0 0 C11.35923586 1.06492836 34.75330224 3.75330224 43 12 C42.70751625 15.56830178 42.23587258 18.92643288 41.46875 22.41796875 C39.80135555 31.60253318 41.36062756 40.92490259 43 50 C42.01 50.66 41.02 51.32 40 52 C37.5390625 51.20703125 37.5390625 51.20703125 34.625 49.8125 C25.33463708 45.71084399 16.42640926 43.46221418 6.2421875 44.1875 C4 44 4 44 2.40551758 42.79956055 C0.59359583 40.47965865 0.49361612 38.94218132 0.26953125 36.01953125 C0.18872314 35.02703369 0.10791504 34.03453613 0.0246582 33.01196289 C-0.045354 31.95614014 -0.11536621 30.90031738 -0.1875 29.8125 C-0.26718018 28.7392749 -0.34686035 27.6660498 -0.42895508 26.56030273 C-1.0202905 18.07009799 -1.51884279 9.50660858 -1 1 C-0.67 0.67 -0.34 0.34 0 0 Z " fill="#92013A" transform="translate(48,36)"/>
<path d="M0 0 C5.53108769 0.51256276 5.53108769 0.51256276 7.58203125 2.64453125 C8.19111328 3.71767578 8.19111328 3.71767578 8.8125 4.8125 C11.173486 8.71649259 13.71225139 12.32323296 16.5 15.9375 C27.06569993 29.95943737 27.06569993 29.95943737 26.93359375 34.0625 C25.63673297 36.75389308 23.88082864 37.79899564 21.4375 39.5 C13.18481425 45.82823971 8.30170371 54.67964197 4 64 C1.6796875 63.84375 1.6796875 63.84375 -1 63 C-2.5546875 60.59375 -2.5546875 60.59375 -3.875 57.5 C-8.45307111 47.67986272 -14.16495794 41.23060789 -23 35 C-22.57354983 29.67457354 -19.61140001 26.17092145 -16.5625 22 C-16.02915039 21.25758057 -15.49580078 20.51516113 -14.94628906 19.75024414 C-10.10936474 13.05533805 -5.10396707 6.49287847 0 0 Z " fill="#ED3F20" transform="translate(118,14)"/>
<path d="M0 0 C0.21914969 9.39908651 0.00196874 18.63916731 -0.9375 28 C-1.02435059 28.87817383 -1.11120117 29.75634766 -1.20068359 30.66113281 C-1.86592155 36.86592155 -1.86592155 36.86592155 -3 38 C-5.08153935 38.13536022 -7.16561206 38.23215465 -9.25 38.3125 C-17.70705611 38.85616789 -25.58373125 40.69249958 -33.125 44.6328125 C-36 46 -36 46 -40 46 C-39.83628906 44.9790625 -39.67257813 43.958125 -39.50390625 42.90625 C-38.69834356 36.46174846 -38.89467597 29.9828993 -38.9375 23.5 C-38.94426758 21.5509375 -38.94426758 21.5509375 -38.95117188 19.5625 C-38.9628908 16.37495175 -38.97929781 13.18750045 -39 10 C-34.95054633 7.91612621 -31.32429825 6.43318695 -26.875 5.4375 C-22.81901249 4.54676659 -22.81901249 4.54676659 -19.00390625 2.98046875 C-16.39610407 1.70452656 -13.92516082 1.32984901 -11.0625 0.875 C-10.04285156 0.70742188 -9.02320313 0.53984375 -7.97265625 0.3671875 C-5.27407618 0.03385435 -2.71461065 -0.06998996 0 0 Z " fill="#FDC10E" transform="translate(191,39)"/>
<path d="M0 0 C2.89120936 -0.12046706 4.36819949 -0.08747983 7 1 C10.11058234 4.02254699 12.54333999 7.43655 15 11 C15.49886719 11.71285156 15.99773437 12.42570312 16.51171875 13.16015625 C21.18098059 20.21312533 23.47851201 26.80166292 23.29296875 35.21875 C23.28872391 35.96209595 23.28447906 36.70544189 23.28010559 37.47131348 C23.26349081 39.81459858 23.22587454 42.15698077 23.1875 44.5 C23.17243078 46.10154996 23.15874632 47.70311358 23.14648438 49.3046875 C23.11364426 53.20346583 23.06198563 57.10158056 23 61 C15.37834753 59.36531607 10.7720639 50.70956623 6.5703125 44.5859375 C4.14102738 40.58547295 2.51484979 36.41448651 1 32 C0.608125 30.906875 0.21625 29.81375 -0.1875 28.6875 C-1.7325851 23.57683391 -2.16056844 18.91110844 -2.1875 13.5625 C-2.20167969 12.28503906 -2.21585937 11.00757812 -2.23046875 9.69140625 C-2.00606734 6.09718029 -1.30528856 3.33803042 0 0 Z " fill="#F36E1F" transform="translate(94,53)"/>
<path d="M0 0 C0.25887866 5.76814024 -1.17816267 8.76672085 -5 13 C-11.71557789 19.5718593 -11.71557789 19.5718593 -16 21 C-16.495 22.485 -16.495 22.485 -17 24 C-18.64034193 24.72904086 -20.31301918 25.38655243 -22 26 C-22.845625 26.53625 -23.69125 27.0725 -24.5625 27.625 C-27 29 -27 29 -31 29 C-31 29.66 -31 30.32 -31 31 C-32.05960938 31.20496094 -33.11921875 31.40992187 -34.2109375 31.62109375 C-35.59898822 31.89307666 -36.98700744 32.16522044 -38.375 32.4375 C-39.07367188 32.57220703 -39.77234375 32.70691406 -40.4921875 32.84570312 C-44.35628734 33.5772422 -44.35628734 33.5772422 -48 35 C-50.6723621 35.13415472 -53.32250488 35.04318541 -56 35 C-55.49268371 30.60325886 -52.88085945 28.16191891 -50 25 C-49.34 24.67 -48.68 24.34 -48 24 C-47.608125 23.29875 -47.21625 22.5975 -46.8125 21.875 C-41.12172652 12.84825587 -32.86193094 7.45167583 -23 4 C-22.01 3.34 -21.02 2.68 -20 2 C-13.28817529 -0.19659718 -7.02258996 -0.2106777 0 0 Z " fill="#ACC22D" transform="translate(186,82)"/>
<path d="M0 0 C0.8971875 0.309375 0.8971875 0.309375 1.8125 0.625 C3.11053492 5.20584069 3.03490897 9.64313755 3.0625 14.375 C3.083125 15.24382812 3.10375 16.11265625 3.125 17.0078125 C3.16046691 22.91305254 2.20124842 27.21888515 -0.1875 32.625 C-0.8475 32.625 -1.5075 32.625 -2.1875 32.625 C-2.30544922 34.13707031 -2.30544922 34.13707031 -2.42578125 35.6796875 C-3.056383 40.05318026 -4.94277502 43.12753727 -7.375 46.75 C-7.74947266 47.34425781 -8.12394531 47.93851563 -8.50976562 48.55078125 C-11.24844471 52.73500259 -14.28134876 55.51996889 -18.1875 58.625 C-18.5175 59.285 -18.8475 59.945 -19.1875 60.625 C-20.1775 60.625 -21.1675 60.625 -22.1875 60.625 C-23.15218685 23.30893386 -23.15218685 23.30893386 -11.1875 8.625 C-10.32125 7.52671875 -10.32125 7.52671875 -9.4375 6.40625 C-3.67068789 -0.62926078 -3.67068789 -0.62926078 0 0 Z " fill="#F8A619" transform="translate(145.1875,53.375)"/>
<path d="M0 0 C11.91293191 -1.21836804 23.53630317 2.20091745 33.0625 9.5 C34.38779911 10.65210661 35.7014737 11.81780001 37 13 C37.598125 13.47050781 38.19625 13.94101563 38.8125 14.42578125 C44.5513787 18.97333022 51.79193578 25.51000186 53 33 C37.50489237 32.16242661 37.50489237 32.16242661 30 30 C29.67 29.34 29.34 28.68 29 28 C28.05125 27.773125 27.1025 27.54625 26.125 27.3125 C18.21637577 25.2657546 9.87139714 19.5463788 5.5 12.625 C5.005 11.75875 4.51 10.8925 4 10 C2.9171875 8.4840625 2.9171875 8.4840625 1.8125 6.9375 C0 4 0 4 0 0 Z " fill="#F29ABF" transform="translate(55,83)"/>
<path d="M0 0 C2.0625 0.25 2.0625 0.25 4 1 C4.495 1.99 4.495 1.99 5 3 C2.525 2.505 2.525 2.505 0 2 C-2.24468636 13.70828405 -2.76644335 27.7150061 4 38 C4.4125 39.2375 4.825 40.475 5.25 41.75 C7.12112872 46.95193377 10.47389714 50.81509236 14 55 C14.55558594 55.68964844 15.11117187 56.37929687 15.68359375 57.08984375 C18.69311292 60.91093916 18.69311292 60.91093916 23 63 C23 53.76 23 44.52 23 35 C24.80330533 38.60661066 25.46599103 41.08393425 26 45 C26.33 42.69 26.66 40.38 27 38 C27.33 38 27.66 38 28 38 C28 46.25 28 54.5 28 63 C27.67 63 27.34 63 27 63 C26.67 59.7 26.34 56.4 26 53 C25.855625 54.60875 25.71125 56.2175 25.5625 57.875 C25.125 62.75 25.125 62.75 24 65 C19.59885603 64.49701212 17.28804981 62.91227269 14 60 C14.66 60.66 15.32 61.32 16 62 C16.125 64.625 16.125 64.625 16 67 C-1.20882712 66.2617515 -15.96521298 62.32468471 -30 52 C-30 51.34 -30 50.68 -30 50 C-30.66 50 -31.32 50 -32 50 C-36.23504093 45.35207207 -40.68272659 39.56932591 -41.25 33.1875 C-41 31 -41 31 -40 30 C-27.48711656 28.54334754 -15.28430212 33.07787357 -5 40 C-0.03404039 44.03308867 4.49578496 48.46500444 9 53 C8.46890625 52.18917969 7.9378125 51.37835938 7.390625 50.54296875 C-1.17377998 37.11810766 -6.10120367 23.75530239 -3.62109375 7.51953125 C-2.88715559 4.34683794 -2.33438646 2.33438646 0 0 Z M-39 32 C-38.27314125 36.02106265 -37.30067208 38.58865864 -35 42 C-34.41605469 42.91458984 -34.41605469 42.91458984 -33.8203125 43.84765625 C-29.82996911 49.69790545 -24.92508536 53.22670984 -19 57 C-18.01 57.66 -17.02 58.32 -16 59 C-14.96875 59.165 -13.9375 59.33 -12.875 59.5 C-11.92625 59.665 -10.9775 59.83 -10 60 C-9.67 60.66 -9.34 61.32 -9 62 C-6.25878211 62.64743825 -3.58655488 63.17303428 -0.8125 63.625 C-0.05646484 63.7590625 0.69957031 63.893125 1.47851562 64.03125 C5.7008732 64.74901417 9.70033903 65.1508653 14 65 C9.99767153 52.72619269 -1.9041836 42.99120636 -13.0625 37.1875 C-14.69768425 36.43475577 -16.34336099 35.70427166 -18 35 C-18.72832031 34.6803125 -19.45664063 34.360625 -20.20703125 34.03125 C-26.4303776 31.60919088 -32.39097836 31.698065 -39 32 Z " fill="#FBE5DF" transform="translate(94,51)"/>
<path d="M0 0 C6.0476698 -0.44561777 10.06701107 0.93158123 15.5 3.5 C16.27593506 3.85586182 17.05187012 4.21172363 17.85131836 4.57836914 C37.89353571 13.89353571 37.89353571 13.89353571 41 17 C41.04063832 18.66617115 41.042721 20.33388095 41 22 C40.38125 22.2475 39.7625 22.495 39.125 22.75 C36.89652827 23.78807075 36.89652827 23.78807075 36.203125 25.73828125 C34.55156242 28.84300441 32.1387385 31.03291067 29.625 33.4375 C26.9372864 36.0281972 24.33018189 38.57463646 22.03515625 41.53125 C19.60350307 44.48097132 16.83892778 46.76248567 13.8125 49.0625 C13.23878662 49.50005615 12.66507324 49.9376123 12.07397461 50.38842773 C-0.01561961 59.38419488 -12.9264076 60.20365135 -27.59375 58.609375 C-39.69738692 56.44404546 -51.41542616 50.69239345 -61 43 C-61 42.01 -61 41.02 -61 40 C-57.45052399 38.36710265 -54.08596734 37.61806803 -50.22705078 37.0637207 C-31.98346377 34.41957348 -17.69699226 26.3516288 -6 12 C-5.21625 11.13375 -4.4325 10.2675 -3.625 9.375 C-1.53040029 6.31366196 -0.84737771 3.60135527 0 0 Z M2 2 C1.32904297 3.32064453 1.32904297 3.32064453 0.64453125 4.66796875 C-0.26232422 6.41013672 -0.26232422 6.41013672 -1.1875 8.1875 C-1.77917969 9.33605469 -2.37085938 10.48460938 -2.98046875 11.66796875 C-7.98837759 19.93053401 -17.07820561 27.24345499 -26 31 C-26 31.66 -26 32.32 -26 33 C-33.29753676 35.32764515 -40.63249054 37.10987873 -48.125 38.6875 C-49.176875 38.91244141 -50.22875 39.13738281 -51.3125 39.36914062 C-53.87424457 39.91642242 -56.43671798 40.45997372 -59 41 C-57.71708803 44.8487359 -56.54382857 45.15104596 -53 47 C-51.34517687 47.71384527 -49.6893876 48.42580403 -48.0234375 49.11328125 C-44.78412511 50.53282548 -41.66391464 52.18457601 -38.52734375 53.81640625 C-27.24525301 59.09998198 -11.27645949 59.44707394 0.5390625 55.35205078 C13.410903 49.75908224 23.18373836 37.57541968 32.61254883 27.53027344 C34.13899211 25.91251516 35.70376629 24.32956962 37.31420898 22.79541016 C39.23490333 21.15700283 39.23490333 21.15700283 39.015625 18.9140625 C37.67072846 16.3794498 36.28934823 15.67830787 33.75 14.375 C32.98171875 13.97023438 32.2134375 13.56546875 31.421875 13.1484375 C29.80594713 12.38217493 28.16493296 11.66675728 26.50390625 11.00390625 C23.97528371 9.99009035 21.60512419 8.81622757 19.1875 7.5625 C10.98418557 3.36659818 10.98418557 3.36659818 2 2 Z " fill="#ECF2E0" transform="translate(190,82)"/>
<path d="M0 0 C-0.33 1.65 -0.66 3.3 -1 5 C-1.66 5 -2.32 5 -3 5 C-3 6.32 -3 7.64 -3 9 C-4.65 9 -6.3 9 -8 9 C-8 10.65 -8 12.3 -8 14 C-9.98 14 -11.96 14 -14 14 C-14.33 14.99 -14.66 15.98 -15 17 C-18.3 17 -21.6 17 -25 17 C-25.33 16.34 -25.66 15.68 -26 15 C-25.34 14.67 -24.68 14.34 -24 14 C-24.66 14 -25.32 14 -26 14 C-26.66 14.66 -27.32 15.32 -28 16 C-28.845625 16.33 -29.69125 16.66 -30.5625 17 C-33.14841441 17.74870114 -33.14841441 17.74870114 -34 20 C-33.34 20.33 -32.68 20.66 -32 21 C-32.639375 21.12375 -33.27875 21.2475 -33.9375 21.375 C-34.618125 21.58125 -35.29875 21.7875 -36 22 C-36.33 22.66 -36.66 23.32 -37 24 C-38.65 24 -40.3 24 -42 24 C-42 23.01 -42 22.02 -42 21 C-41.01 21 -40.02 21 -39 21 C-39.020625 19.9275 -39.04125 18.855 -39.0625 17.75 C-38 14 -38 14 -36 12.64453125 C-30.0426444 10 -30.0426444 10 -27 10 C-26.67 8.35 -26.34 6.7 -26 5 C-25.38125 4.9175 -24.7625 4.835 -24.125 4.75 C-21.81418662 4.19884128 -21.81418662 4.19884128 -20.8671875 1.953125 C-20.43792969 0.98632812 -20.43792969 0.98632812 -20 0 C-19.10796875 0.01160156 -18.2159375 0.02320312 -17.296875 0.03515625 C-15.54117188 0.04869141 -15.54117188 0.04869141 -13.75 0.0625 C-12.00976562 0.07990234 -12.00976562 0.07990234 -10.234375 0.09765625 C-7.13877312 0.12092689 -7.13877312 0.12092689 -4.765625 -0.56640625 C-3 -1 -3 -1 0 0 Z " fill="#ABC229" transform="translate(177,90)"/>
<path d="M0 0 C0.8971875 0.309375 0.8971875 0.309375 1.8125 0.625 C3.11053492 5.20584069 3.03490897 9.64313755 3.0625 14.375 C3.083125 15.24382812 3.10375 16.11265625 3.125 17.0078125 C3.16046691 22.91305254 2.20124842 27.21888515 -0.1875 32.625 C-0.8475 32.625 -1.5075 32.625 -2.1875 32.625 C-2.30544922 34.13707031 -2.30544922 34.13707031 -2.42578125 35.6796875 C-3.056383 40.05318026 -4.94277502 43.12753727 -7.375 46.75 C-7.74947266 47.34425781 -8.12394531 47.93851563 -8.50976562 48.55078125 C-11.24844471 52.73500259 -14.28134876 55.51996889 -18.1875 58.625 C-18.5175 59.285 -18.8475 59.945 -19.1875 60.625 C-20.1775 60.625 -21.1675 60.625 -22.1875 60.625 C-23.15218685 23.30893386 -23.15218685 23.30893386 -11.1875 8.625 C-10.32125 7.52671875 -10.32125 7.52671875 -9.4375 6.40625 C-3.67068789 -0.62926078 -3.67068789 -0.62926078 0 0 Z M-7.1875 6.625 C-7.1875 7.945 -7.1875 9.265 -7.1875 10.625 C-7.97125 10.83125 -8.755 11.0375 -9.5625 11.25 C-12.49666286 12.43176612 -12.49666286 12.43176612 -13.5 15.75 C-13.726875 16.69875 -13.95375 17.6475 -14.1875 18.625 C-14.8475 18.625 -15.5075 18.625 -16.1875 18.625 C-19.7493869 29.44507153 -19.90025105 40.33183118 -20.1875 51.625 C-18.2075 51.625 -16.2275 51.625 -14.1875 51.625 C-13.8575 50.635 -13.5275 49.645 -13.1875 48.625 C-12.5275 48.625 -11.8675 48.625 -11.1875 48.625 C-11.1875 47.635 -11.1875 46.645 -11.1875 45.625 C-9.2075 45.13 -9.2075 45.13 -7.1875 44.625 C-7.1875 42.315 -7.1875 40.005 -7.1875 37.625 C-6.1975 37.625 -5.2075 37.625 -4.1875 37.625 C-4.1875 35.315 -4.1875 33.005 -4.1875 30.625 C-3.5275 30.625 -2.8675 30.625 -2.1875 30.625 C-1.37315857 27.77339609 -1.06868758 25.25873869 -1.08984375 22.296875 C-1.09467773 21.09804687 -1.09467773 21.09804687 -1.09960938 19.875 C-1.10798828 19.05 -1.11636719 18.225 -1.125 17.375 C-1.12951172 16.53453125 -1.13402344 15.6940625 -1.13867188 14.828125 C-1.15042039 12.76038599 -1.16835478 10.69268376 -1.1875 8.625 C-1.8475 8.625 -2.5075 8.625 -3.1875 8.625 C-3.1875 7.965 -3.1875 7.305 -3.1875 6.625 C-4.5075 6.625 -5.8275 6.625 -7.1875 6.625 Z " fill="#F3AD34" transform="translate(145.1875,53.375)"/>
<path d="M0 0 C2.89120936 -0.12046706 4.36819949 -0.08747983 7 1 C10.11058234 4.02254699 12.54333999 7.43655 15 11 C15.49886719 11.71285156 15.99773437 12.42570312 16.51171875 13.16015625 C21.18098059 20.21312533 23.47851201 26.80166292 23.29296875 35.21875 C23.28872391 35.96209595 23.28447906 36.70544189 23.28010559 37.47131348 C23.26349081 39.81459858 23.22587454 42.15698077 23.1875 44.5 C23.17243078 46.10154996 23.15874632 47.70311358 23.14648438 49.3046875 C23.11364426 53.20346583 23.06198563 57.10158056 23 61 C15.20340621 59.32779484 10.76072219 50.46128595 6.3828125 44.296875 C5.08454921 42.14043766 4.43998226 40.459388 4 38 C4.99 38.33 5.98 38.66 7 39 C7 39.99 7 40.98 7 42 C10.54518884 40.60240095 10.54518884 40.60240095 14 39 C15.125 41.1875 15.125 41.1875 16 44 C15.0625 46.6875 15.0625 46.6875 14 49 C14.33 49.66 14.66 50.32 15 51 C15.66 51 16.32 51 17 51 C17.66 50.34 18.32 49.68 19 49 C19.495 49.495 19.495 49.495 20 50 C20.11783281 46.37528143 20.18778808 42.75106597 20.25 39.125 C20.28351563 38.11179688 20.31703125 37.09859375 20.3515625 36.0546875 C20.46620039 27.11293238 18.27384127 19.33751829 13 12 C12.01 11.34 11.02 10.68 10 10 C9.01 10.495 9.01 10.495 8 11 C7.67 9.02 7.34 7.04 7 5 C4.03 4.505 4.03 4.505 1 4 C1.33 12.25 1.66 20.5 2 29 C2.66 29.33 3.32 29.66 4 30 C4 31.98 4 33.96 4 36 C2 35 2 35 1.18359375 33.109375 C0.93738281 32.33078125 0.69117187 31.5521875 0.4375 30.75 C0.06431641 29.59757812 0.06431641 29.59757812 -0.31640625 28.421875 C-1.73661093 23.39029269 -2.1611057 18.80440885 -2.1875 13.5625 C-2.20167969 12.28503906 -2.21585937 11.00757812 -2.23046875 9.69140625 C-2.00606734 6.09718029 -1.30528856 3.33803042 0 0 Z " fill="#ED8446" transform="translate(94,53)"/>
<path d="M0 0 C11.35923586 1.06492836 34.75330224 3.75330224 43 12 C42.70751625 15.56830178 42.23587258 18.92643288 41.46875 22.41796875 C39.80135555 31.60253318 41.36062756 40.92490259 43 50 C42.01 50.66 41.02 51.32 40 52 C37.5390625 51.20703125 37.5390625 51.20703125 34.625 49.8125 C25.33463708 45.71084399 16.42640926 43.46221418 6.2421875 44.1875 C4 44 4 44 2.40551758 42.79956055 C0.59359583 40.47965865 0.49361612 38.94218132 0.26953125 36.01953125 C0.18872314 35.02703369 0.10791504 34.03453613 0.0246582 33.01196289 C-0.045354 31.95614014 -0.11536621 30.90031738 -0.1875 29.8125 C-0.26718018 28.7392749 -0.34686035 27.6660498 -0.42895508 26.56030273 C-1.0202905 18.07009799 -1.51884279 9.50660858 -1 1 C-0.67 0.67 -0.34 0.34 0 0 Z M1 3 C1.09415393 7.28706572 1.20037831 11.57361871 1.31738281 15.86010742 C1.35546427 17.31575518 1.390352 18.77149037 1.421875 20.22729492 C1.46798255 22.33023148 1.52589547 24.43257675 1.5859375 26.53515625 C1.6173584 27.797229 1.6487793 29.05930176 1.68115234 30.35961914 C2.0178523 34.20382514 2.82488926 37.34066393 4 41 C5.01578125 41.10957031 6.0315625 41.21914062 7.078125 41.33203125 C28.50718267 43.75396937 28.50718267 43.75396937 38 49 C38.66 49 39.32 49 40 49 C40.020625 47.700625 40.04125 46.40125 40.0625 45.0625 C40.07410156 44.33160156 40.08570313 43.60070312 40.09765625 42.84765625 C40.20561184 40.98267859 40.20561184 40.98267859 39 40 C38.74878778 36.92465582 38.81477127 33.83439033 38.8125 30.75 C38.80025391 29.89019531 38.78800781 29.03039062 38.77539062 28.14453125 C38.76484755 23.58289454 39.00869403 20.18725207 41 16 C41 15.01 41 14.02 41 13 C33.60539757 9.61491533 26.59582596 7.02473545 18.58984375 5.5078125 C15.43654609 4.88951884 12.32156493 4.14084626 9.203125 3.3671875 C6.45068665 2.90844777 3.78612757 2.97766155 1 3 Z " fill="#EDD2DD" transform="translate(48,36)"/>
<path d="M0 0 C1.30047167 2.2149586 2.34940266 4.28933088 3.375 6.625 C10.16987193 21.00189947 21.21524474 28.41536537 36 34 C42.4813802 36.01178548 49.10107462 37.68541073 55.8515625 38.41796875 C57.41003906 38.70607422 57.41003906 38.70607422 59 39 C59.66 39.99 60.32 40.98 61 42 C58.83385197 44.30874711 56.60793392 46.05290181 53.9375 47.75 C53.24527344 48.19859375 52.55304688 48.6471875 51.83984375 49.109375 C50.92912109 49.55023438 50.92912109 49.55023438 50 50 C49.34 49.67 48.68 49.34 48 49 C48.66 48.01 49.32 47.02 50 46 C51.32 46 52.64 46 54 46 C54 45.34 54 44.68 54 44 C55.32 43.67 56.64 43.34 58 43 C58 42.34 58 41.68 58 41 C57.19046875 41.04640625 56.3809375 41.0928125 55.546875 41.140625 C51.1951626 40.96809015 47.41491996 39.95911401 43.25 38.75 C42.44941162 38.51966064 41.64882324 38.28932129 40.82397461 38.05200195 C24.57983836 33.29661554 11.41433707 25.54708523 2 11 C0.51397592 8.05538614 -0.79247301 5.06853918 -2 2 C-9.89810853 3.39378386 -16.38926045 6.54493639 -23 11 C-25.01517801 11.83331417 -27.0497038 12.55805552 -29.109375 13.2734375 C-31.22080439 14.02241627 -31.22080439 14.02241627 -33.8125 15.6875 C-36 17 -36 17 -39 17 C-37.63758853 21.14551939 -35.84737023 23.45819378 -32.6875 26.4375 C-30.07508617 28.95795687 -27.53365753 31.42643622 -25.25 34.25 C-21.29220403 39.08730619 -16.83221695 43.0553331 -12 47 C-10.87394946 47.93623792 -9.74891543 48.87370005 -8.625 49.8125 C-7.75875 50.534375 -6.8925 51.25625 -6 52 C-6.99 52.495 -6.99 52.495 -8 53 C-9.39933447 51.94211533 -10.79428668 50.8784332 -12.1875 49.8125 C-12.96480469 49.22082031 -13.74210937 48.62914062 -14.54296875 48.01953125 C-17.21588852 45.82255268 -19.57905826 43.47334308 -22 41 C-23.29269303 39.71585766 -24.58711084 38.43345032 -25.8828125 37.15234375 C-27.29692592 35.74744708 -28.7109873 34.34249804 -30.125 32.9375 C-30.84042969 32.23044922 -31.55585938 31.52339844 -32.29296875 30.79492188 C-33.32744141 29.7652832 -33.32744141 29.7652832 -34.3828125 28.71484375 C-35.00559082 28.09730225 -35.62836914 27.47976074 -36.27001953 26.84350586 C-41.00144884 21.80158902 -41.00144884 21.80158902 -40.99536133 18.43359375 C-39.65597026 15.15886964 -38.23563238 14.58434558 -35.07421875 13.0625 C-34.04876953 12.55976562 -33.02332031 12.05703125 -31.96679688 11.5390625 C-30.88462891 11.03117187 -29.80246094 10.52328125 -28.6875 10 C-27.64787109 9.49210937 -26.60824219 8.98421875 -25.53710938 8.4609375 C-22.37567771 6.93216087 -19.19591908 5.45521076 -16 4 C-14.90123535 3.49726562 -13.8024707 2.99453125 -12.67041016 2.4765625 C-11.60999512 2.00992188 -10.54958008 1.54328125 -9.45703125 1.0625 C-8.50417236 0.64097656 -7.55131348 0.21945313 -6.56958008 -0.21484375 C-3.81124567 -1.05767543 -2.60685009 -1.19728411 0 0 Z " fill="#FBDEEB" transform="translate(50,82)"/>
<path d="M0 0 C-2.64 0.99 -5.28 1.98 -8 3 C-8 3.66 -8 4.32 -8 5 C-4.535 4.505 -4.535 4.505 -1 4 C-1 4.66 -1 5.32 -1 6 C0.65 6 2.3 6 4 6 C4.33 8.97 4.66 11.94 5 15 C10.58062213 15.94765281 15.97030058 16.1515064 21.625 16.125 C22.87410156 16.13080078 22.87410156 16.13080078 24.1484375 16.13671875 C28.22905986 16.13022094 32.01986352 16.02346367 36 15 C36 14.34 36 13.68 36 13 C36.99 13.33 37.98 13.66 39 14 C34.00226459 18.99773541 28.20339333 19.40767474 21.45874023 19.51855469 C19.90135132 19.50937012 19.90135132 19.50937012 18.3125 19.5 C17.24265869 19.49645508 16.17281738 19.49291016 15.07055664 19.48925781 C6.98569698 19.31919293 1.00437383 18.22677731 -6 14 C-6.66515625 13.63132813 -7.3303125 13.26265625 -8.015625 12.8828125 C-9.68963491 11.94391129 -11.34565998 10.97314119 -13 10 C-14.24188757 9.43998389 -15.49209173 8.89803878 -16.75 8.375 C-20 7 -20 7 -23 5 C-23 4.34 -23 3.68 -23 3 C-19.91979223 2.29795962 -16.83548264 1.61594792 -13.75 0.9375 C-12.87730469 0.73833984 -12.00460938 0.53917969 -11.10546875 0.33398438 C-10.26113281 0.15029297 -9.41679687 -0.03339844 -8.546875 -0.22265625 C-7.77182617 -0.39547119 -6.99677734 -0.56828613 -6.19824219 -0.74633789 C-4 -1 -4 -1 0 0 Z " fill="#7DA530" transform="translate(154,120)"/>
<path d="M0 0 C5.53108769 0.51256276 5.53108769 0.51256276 7.58203125 2.64453125 C8.19111328 3.71767578 8.19111328 3.71767578 8.8125 4.8125 C11.173486 8.71649259 13.71225139 12.32323296 16.5 15.9375 C27.06569993 29.95943737 27.06569993 29.95943737 26.93359375 34.0625 C25.63673297 36.75389308 23.88082864 37.79899564 21.4375 39.5 C13.18481425 45.82823971 8.30170371 54.67964197 4 64 C1.6796875 63.84375 1.6796875 63.84375 -1 63 C-2.5546875 60.59375 -2.5546875 60.59375 -3.875 57.5 C-8.45307111 47.67986272 -14.16495794 41.23060789 -23 35 C-22.57354983 29.67457354 -19.61140001 26.17092145 -16.5625 22 C-16.02915039 21.25758057 -15.49580078 20.51516113 -14.94628906 19.75024414 C-10.10936474 13.05533805 -5.10396707 6.49287847 0 0 Z M0 2 C-1.82070489 4.13917802 -3.33836862 6.170573 -4.875 8.5 C-5.75955556 9.7948595 -6.64496776 11.08913423 -7.53125 12.3828125 C-7.95535156 13.00961914 -8.37945312 13.63642578 -8.81640625 14.28222656 C-10.25904984 16.37596424 -11.8026107 18.3774238 -13.375 20.375 C-18.21172926 26.57715327 -18.21172926 26.57715327 -19.90625 33.953125 C-18.59209688 36.92129842 -16.53624621 38.4273059 -14.0625 40.5 C-10.85384024 43.19619755 -8.7286507 45.19195788 -7 49 C-6.34 49.33 -5.68 49.66 -5 50 C-4.24540428 51.7060425 -3.49583906 53.41495183 -2.796875 55.14453125 C-1.75340661 57.57417578 -0.41760718 59.77233158 1 62 C4.24991553 61.28515597 4.24991553 61.28515597 5.625 58.1875 C7.03380104 55.22594099 7.03380104 55.22594099 7.4375 52.8125 C8 51 8 51 9.9375 49.5625 C12.18716045 48.14993214 12.18716045 48.14993214 12.875 45.625 C14.64551532 41.49379758 17.97655769 39.01172115 22 37 C22 36.34 22 35.68 22 35 C22.99 35 23.98 35 25 35 C24.70796459 28.80884935 21.61699089 25.36772106 17.875 20.75 C16.68428638 19.24760675 15.49547228 17.74370603 14.30859375 16.23828125 C13.73608887 15.51463379 13.16358398 14.79098633 12.57373047 14.04541016 C9.99510207 10.6939133 7.71163986 7.17160624 5.46484375 3.58984375 C4.98144531 3.06519531 4.49804688 2.54054688 4 2 C2.68 2 1.36 2 0 2 Z " fill="#FCE3DF" transform="translate(118,14)"/>
<path d="M0 0 C2.25 0.125 2.25 0.125 5 1 C5.97050019 2.3797981 6.93130408 3.76788264 7.83105469 5.19482422 C10.03346776 8.59596087 12.55062458 11.77458484 15 15 C17.01620023 17.65499634 19.019364 20.31835239 21 23 C21.41765625 23.55945313 21.8353125 24.11890625 22.265625 24.6953125 C24.5225326 27.85816188 25 28.94786684 25 33 C24.34 33 23.68 33 23 33 C22.67386719 32.37351563 22.34773438 31.74703125 22.01171875 31.1015625 C21.57472656 30.28429687 21.13773438 29.46703125 20.6875 28.625 C20.25824219 27.81289063 19.82898438 27.00078125 19.38671875 26.1640625 C18.03221276 23.73165957 18.03221276 23.73165957 15 22 C14.87625 21.236875 14.7525 20.47375 14.625 19.6875 C13.76728113 15.99930886 11.76600947 14.49615489 9 12 C8.34 11.34 7.68 10.68 7 10 C6.34 10.66 5.68 11.32 5 12 C4.67 10.35 4.34 8.7 4 7 C1.525 6.505 1.525 6.505 -1 6 C-0.649375 7.093125 -0.29875 8.18625 0.0625 9.3125 C1 13 1 13 0 16 C-2.97 16 -5.94 16 -9 16 C-9 18.64 -9 21.28 -9 24 C-9.99 24.33 -10.98 24.66 -12 25 C-12.66 24.67 -13.32 24.34 -14 24 C-14.144375 24.5775 -14.28875 25.155 -14.4375 25.75 C-15 28 -15 28 -15.71875 29.90625 C-16.23857807 32.07794865 -16.23857807 32.07794865 -14.78515625 33.921875 C-14.21667969 34.52515625 -13.64820312 35.1284375 -13.0625 35.75 C-12.49660156 36.36359375 -11.93070313 36.9771875 -11.34765625 37.609375 C-10.90292969 38.06828125 -10.45820312 38.5271875 -10 39 C-10.33 39.66 -10.66 40.32 -11 41 C-12.53771021 39.79201323 -14.05482456 38.55777086 -15.5625 37.3125 C-16.40941406 36.62800781 -17.25632812 35.94351563 -18.12890625 35.23828125 C-20 33 -20 33 -19.8984375 30.48046875 C-16.9531586 22.34893787 -11.71521586 15.81729925 -6.40234375 9.11328125 C-4.11123253 6.14415012 -2.04011636 3.14262728 0 0 Z " fill="#E9533A" transform="translate(118,16)"/>
<path d="M0 0 C0.51304688 0.15855469 1.02609375 0.31710938 1.5546875 0.48046875 C7.43172223 2.27128236 13.33525636 3.96384563 19.25 5.625 C20.01812012 5.84309326 20.78624023 6.06118652 21.57763672 6.28588867 C25.70145284 7.43696037 29.75280975 8.39132624 34 9 C34 9.66 34 10.32 34 11 C32.68 11.33 31.36 11.66 30 12 C30 12.66 30 13.32 30 14 C29.071875 14.12375 29.071875 14.12375 28.125 14.25 C27.42375 14.4975 26.7225 14.745 26 15 C25.72414062 15.62261719 25.44828125 16.24523437 25.1640625 16.88671875 C22.37582331 21.94858923 14.84455953 23.46324596 9.6171875 24.984375 C-4.27159339 28.27791141 -17.03631699 28.06810694 -30 22 C-27 21 -27 21 -24.08984375 22.39453125 C-18.82576998 24.82783238 -13.26639272 24.56902152 -7.5625 24.6875 C-6.44939453 24.72166016 -5.33628906 24.75582031 -4.18945312 24.79101562 C-1.45973617 24.87302429 1.2696786 24.94232837 4 25 C4 24.34 4 23.68 4 23 C10.625 20 10.625 20 14 20 C13.34 19.01 12.68 18.02 12 17 C11.875 14.3125 11.875 14.3125 12 12 C12.65226562 12.0721875 13.30453125 12.144375 13.9765625 12.21875 C18.6737056 12.71756166 23.26852656 13.12451246 28 13 C27.505 11.515 27.505 11.515 27 10 C20.99427816 8.92043743 15.0978096 7.96239567 9 7.625 C5.5019024 7.34232545 4.25638777 7.17887519 1.3125 5.125 C0 3 0 3 0 0 Z " fill="#EC70A5" transform="translate(74,114)"/>
<path d="M0 0 C1.82460793 1.82460793 1.17390559 4.60734879 1.1875 7.0625 C1.17834034 14.33435687 0.68981735 21.56500155 0.125 28.8125 C0.04660889 29.88056885 -0.03178223 30.9486377 -0.11254883 32.04907227 C-0.23859497 33.55038696 -0.23859497 33.55038696 -0.3671875 35.08203125 C-0.44050293 35.98155518 -0.51381836 36.8810791 -0.58935547 37.80786133 C-1 40 -1 40 -3 42 C-5.5051695 42.28157757 -7.92514118 42.46559811 -10.4375 42.5625 C-15.79409265 42.77434943 -15.79409265 42.77434943 -21 44 C-22.39439664 44.06665376 -23.79169875 44.08538199 -25.1875 44.0625 C-26.445625 44.041875 -27.70375 44.02125 -29 44 C-21.65907692 39.10605128 -12.54246091 39.45591786 -4 39 C-2.68717674 26.67475639 -1.60941224 14.38069085 -1 2 C-13.72687626 3.91255192 -13.72687626 3.91255192 -25.8515625 8.0859375 C-29.14981928 9.48919584 -32.50995151 10.20402403 -36 11 C-36.99 11.33 -37.98 11.66 -39 12 C-39 21.24 -39 30.48 -39 40 C-39.33 40 -39.66 40 -40 40 C-40.05534912 39.40050537 -40.11069824 38.80101074 -40.16772461 38.18334961 C-40.42253147 35.43456428 -40.67999616 32.68603394 -40.9375 29.9375 C-41.02451172 28.99455078 -41.11152344 28.05160156 -41.20117188 27.08007812 C-41.28818359 26.15517578 -41.37519531 25.23027344 -41.46484375 24.27734375 C-41.54847168 23.37226074 -41.63209961 22.46717773 -41.71826172 21.53466797 C-41.96414516 19.32256927 -42.33177205 17.18694309 -42.75390625 15.00390625 C-43 12 -43 12 -42.00390625 10.21484375 C-39.13702189 8.47683004 -36.13000905 7.50684464 -32.9375 6.5625 C-32.24156738 6.35149658 -31.54563477 6.14049316 -30.82861328 5.9230957 C-25.38961873 4.31675114 -19.90440653 2.94452109 -14.375 1.6875 C-13.25726196 1.43045288 -13.25726196 1.43045288 -12.11694336 1.16821289 C-8.01738631 0.2764397 -4.22328367 -0.27938646 0 0 Z " fill="#FEF6DA" transform="translate(192,37)"/>
<path d="M0 0 C0 9.24 0 18.48 0 28 C-0.99 28 -1.98 28 -3 28 C-3.97299156 23.14270355 -4.12038805 18.5499375 -4.0625 13.625 C-4.05798828 12.88894531 -4.05347656 12.15289062 -4.04882812 11.39453125 C-4.03715142 9.59631842 -4.01922011 7.79814803 -4 6 C-4.66 6 -5.32 6 -6 6 C-5.67 13.92 -5.34 21.84 -5 30 C-5.99 30 -6.98 30 -8 30 C-8 28.02 -8 26.04 -8 24 C-9.32 24 -10.64 24 -12 24 C-12 23.34 -12 22.68 -12 22 C-11.34 22 -10.68 22 -10 22 C-10 16.72 -10 11.44 -10 6 C-11.98 6 -13.96 6 -16 6 C-11.06686187 1.85616397 -6.44424601 0 0 0 Z " fill="#FCC20C" transform="translate(188,42)"/>
<path d="M0 0 C0.33 0 0.66 0 1 0 C0.85899143 2.27113803 0.71203245 4.54190725 0.5625 6.8125 C0.48128906 8.07707031 0.40007812 9.34164062 0.31640625 10.64453125 C0 14 0 14 -1 17 C-1.14835948 18.77166975 -1.24770018 20.54767612 -1.31640625 22.32421875 C-1.35830078 23.35224609 -1.40019531 24.38027344 -1.44335938 25.43945312 C-1.48267578 26.51130859 -1.52199219 27.58316406 -1.5625 28.6875 C-1.60568359 29.77095703 -1.64886719 30.85441406 -1.69335938 31.97070312 C-1.79946838 34.64700791 -1.90152361 37.32340526 -2 40 C-1.01 40 -0.02 40 1 40 C1.226875 39.4225 1.45375 38.845 1.6875 38.25 C3.33708262 35.42214408 5.39710359 33.95217231 8 32 C8.66 31.34 9.32 30.68 10 30 C10 30.66 10 31.32 10 32 C11.32 31.34 12.64 30.68 14 30 C12.7589311 33.7232067 10.75859975 35.24140025 8 38 C6.9703018 39.64848397 5.96492839 41.31278603 5 43 C6.05058594 42.79503906 7.10117188 42.59007812 8.18359375 42.37890625 C15.4432316 40.97969748 22.62790642 39.65822264 30 39 C30 38.34 30 37.68 30 37 C30.55429688 36.80664062 31.10859375 36.61328125 31.6796875 36.4140625 C32.40414062 36.15367188 33.12859375 35.89328125 33.875 35.625 C34.59429687 35.36976562 35.31359375 35.11453125 36.0546875 34.8515625 C38.18157994 34.06122217 38.18157994 34.06122217 40 32 C40.598125 31.896875 41.19625 31.79375 41.8125 31.6875 C45.06942845 30.66389391 46.65548557 28.45356161 49 26 C51.29933066 23.95934404 53.64447835 21.97537983 56 20 C56 24.0333972 54.717743 25.06572138 52 28 C49.87079765 29.62119188 47.81614248 31.08199522 45.5625 32.5 C44.94342773 32.89018311 44.32435547 33.28036621 43.68652344 33.68237305 C34.82624146 39.10438717 25.48809138 42.05577168 15.4375 44.4375 C14.6630957 44.62610596 13.88869141 44.81471191 13.09082031 45.0090332 C9.97647594 45.69239407 7.61809122 46.19492893 4.53515625 45.22265625 C3 44 3 44 2 42 C0.35 42 -1.3 42 -3 42 C-3.04982839 37.73162357 -3.08592015 33.463406 -3.10986328 29.19482422 C-3.11985586 27.74590094 -3.13345453 26.29699749 -3.15087891 24.84814453 C-3.25437633 16.01433505 -2.8185428 8.45562839 0 0 Z " fill="#F1F2D3" transform="translate(125,74)"/>
<path d="M0 0 C5.54741379 0.49310345 5.54741379 0.49310345 7.5625 2.75 C8.036875 3.4925 8.51125 4.235 9 5 C9.825 5.825 10.65 6.65 11.5 7.5 C17.78765947 13.78765947 20.14892496 20.20788624 20.29296875 29.12890625 C20.27329234 31.27363539 20.23790678 33.41827301 20.1875 35.5625 C20.16719727 37.21862305 20.16719727 37.21862305 20.14648438 38.90820312 C20.11144815 41.60599272 20.06232591 44.30272636 20 47 C19.67 47 19.34 47 19 47 C19 44.36 19 41.72 19 39 C18.34 39 17.68 39 17 39 C16.67 36.36 16.34 33.72 16 31 C15.01 31 14.02 31 13 31 C12.87882812 29.73542969 12.75765625 28.47085938 12.6328125 27.16796875 C12.46397853 25.50776802 12.29468367 23.84761411 12.125 22.1875 C12.04636719 21.35412109 11.96773437 20.52074219 11.88671875 19.66210938 C11.80292969 18.85966797 11.71914062 18.05722656 11.6328125 17.23046875 C11.55949707 16.49207764 11.48618164 15.75368652 11.41064453 14.99291992 C11.0668422 12.69361347 11.0668422 12.69361347 9 10 C8.01 9.67 7.02 9.34 6 9 C5.3125 6.9375 5.3125 6.9375 5 5 C3.35 5 1.7 5 0 5 C0 3.35 0 1.7 0 0 Z " fill="#F16E21" transform="translate(95,57)"/>
<path d="M0 0 C0.495 0.99 0.495 0.99 1 2 C-2.89907343 10.01476205 -11.98741577 18.12839906 -20.31640625 21.23828125 C-21.20199219 21.48964844 -22.08757812 21.74101563 -23 22 C-23 22.66 -23 23.32 -23 24 C-29.08201905 26.80938472 -35.25158712 28.70245791 -41.75 30.25 C-42.47050537 30.42499023 -43.19101074 30.59998047 -43.93334961 30.78027344 C-48.03540304 31.72227208 -51.76124235 32.18661197 -56 32 C-48.98358518 40.23991776 -31.36487354 46.56720866 -21 48 C-21 48.33 -21 48.66 -21 49 C-33.80474283 50.16406753 -45.51698201 42.47995623 -56 36 C-56.66 35.34 -57.32 34.68 -58 34 C-58 33.01 -58 32.02 -58 31 C-54.45052399 29.36710265 -51.08596734 28.61806803 -47.22705078 28.0637207 C-30.10912303 25.5827217 -15.87253174 18.4067382 -4.65625 4.98046875 C-3.18110203 3.21655361 -1.65213629 1.59672928 0 0 Z " fill="#E1EBCF" transform="translate(187,91)"/>
<path d="M0 0 C13.42382876 0.15649541 26.4526798 6.30955711 36.25 15.3125 C35.92 16.3025 35.59 17.2925 35.25 18.3125 C34.78851563 17.86519531 34.32703125 17.41789062 33.8515625 16.95703125 C23.02506332 6.92219308 10.76875981 3.02492645 -3.75 2.3125 C-2.03338509 7.46234472 -0.81795436 10.62591636 3.25 14.3125 C3.683125 15.09882812 4.11625 15.88515625 4.5625 16.6953125 C6.47471466 19.66101579 8.32180419 21.06094176 11.25 23 C12.11625 23.58136719 12.9825 24.16273437 13.875 24.76171875 C14.65875 25.27347656 15.4425 25.78523438 16.25 26.3125 C17.24 26.9725 18.23 27.6325 19.25 28.3125 C21.57108669 29.02062814 23.90377147 29.69274152 26.25 30.3125 C26.25 30.9725 26.25 31.6325 26.25 32.3125 C26.81847656 32.36148438 27.38695312 32.41046875 27.97265625 32.4609375 C32.96081129 32.94393081 37.47599578 33.78888163 42.25 35.3125 C42.25 35.6425 42.25 35.9725 42.25 36.3125 C28.69087708 35.96883559 15.99505937 30.39806793 5.25 22.3125 C5.25 21.6525 5.25 20.9925 5.25 20.3125 C4.59 20.3125 3.93 20.3125 3.25 20.3125 C-0.98504093 15.66457207 -5.43272659 9.88182591 -6 3.5 C-5.54546494 -0.47718179 -3.60518915 0.09898641 0 0 Z " fill="#FAE6EF" transform="translate(58.75,80.6875)"/>
<path d="M0 0 C2.31 0 4.62 0 7 0 C6.2575 0.5775 5.515 1.155 4.75 1.75 C0.40338839 5.30631859 -1.94032575 7.78215857 -4 13 C-4.99 13.66 -5.98 14.32 -7 15 C-7.93210924 16.8485267 -7.93210924 16.8485267 -8.5625 18.9375 C-9.49056247 21.74266058 -10.31562448 23.47343672 -12 26 C-15.69915869 24.7669471 -16.35437724 23.10660909 -18.16015625 19.78125 C-19 18 -19 18 -19.5625 15.6875 C-19.90905856 13.57947354 -19.90905856 13.57947354 -23 12 C-24.1875 9.375 -24.1875 9.375 -25 7 C-18.77081866 8.07812754 -18.77081866 8.07812754 -16.64453125 10.62109375 C-14 15.21322202 -14 15.21322202 -14 18 C-13.34 17.67 -12.68 17.34 -12 17 C-12 15.68 -12 14.36 -12 13 C-11.34 13 -10.68 13 -10 13 C-9.67 12.01 -9.34 11.02 -9 10 C-6.625 7.3125 -6.625 7.3125 -4 5 C-3.01 5 -2.02 5 -1 5 C-0.67 3.35 -0.34 1.7 0 0 Z " fill="#E74325" transform="translate(133,50)"/>
<path d="M0 0 C2.89120936 -0.12046706 4.36819949 -0.08747983 7 1 C10.11058234 4.02254699 12.54333999 7.43655 15 11 C15.49886719 11.71285156 15.99773437 12.42570312 16.51171875 13.16015625 C20.6132852 19.35561548 23.56838423 25.42154361 23 33 C20.80419771 28.78041679 19.0939785 24.38036675 17.31640625 19.97265625 C15.38810978 15.61825385 14.00986711 12.67324474 10 10 C9.01 10.495 9.01 10.495 8 11 C7.67 9.02 7.34 7.04 7 5 C4.03 4.505 4.03 4.505 1 4 C1.33 12.25 1.66 20.5 2 29 C2.66 29.33 3.32 29.66 4 30 C4 31.98 4 33.96 4 36 C2 35 2 35 1.18359375 33.109375 C0.93738281 32.33078125 0.69117187 31.5521875 0.4375 30.75 C0.06431641 29.59757812 0.06431641 29.59757812 -0.31640625 28.421875 C-1.73661093 23.39029269 -2.1611057 18.80440885 -2.1875 13.5625 C-2.20167969 12.28503906 -2.21585937 11.00757812 -2.23046875 9.69140625 C-2.00606734 6.09718029 -1.30528856 3.33803042 0 0 Z " fill="#F3B38E" transform="translate(94,53)"/>
<path d="M0 0 C0.21914969 9.39908651 0.00196874 18.63916731 -0.9375 28 C-1.02435059 28.87817383 -1.11120117 29.75634766 -1.20068359 30.66113281 C-1.86592155 36.86592155 -1.86592155 36.86592155 -3 38 C-5.18344537 38.2133081 -7.37251815 38.36994806 -9.5625 38.5 C-14.74693346 38.83362544 -19.85638457 39.27989384 -25 40 C-24.67 39.01 -24.34 38.02 -24 37 C-17.4 37 -10.8 37 -4 37 C-3.67 25.78 -3.34 14.56 -3 3 C-8.2796555 3.94093687 -8.2796555 3.94093687 -13.55883789 4.88452148 C-18.02987424 5.67743309 -22.50104336 6.38460487 -27 7 C-18.90789553 1.60526369 -9.67299427 -0.23030939 0 0 Z " fill="#F9CE4B" transform="translate(191,39)"/>
<path d="M0 0 C4.95602465 0.62335093 9.16749781 2.06038466 13.75 3.9375 C14.42160156 4.20240234 15.09320313 4.46730469 15.78515625 4.74023438 C18.65049971 5.89728188 20.79293383 6.79293383 23 9 C24.64991582 9.70710678 26.31562256 10.37943989 28 11 C25.30234372 12.34882814 23.84835666 11.80338265 21 11 C20.505 10.01 20.505 10.01 20 9 C17.97536745 8.34786708 17.97536745 8.34786708 16 8 C16 7.34 16 6.68 16 6 C14.96939453 5.90912109 14.96939453 5.90912109 13.91796875 5.81640625 C13.01691406 5.73261719 12.11585938 5.64882812 11.1875 5.5625 C10.29417969 5.48128906 9.40085938 5.40007812 8.48046875 5.31640625 C6 5 6 5 3 4 C3.268125 4.721875 3.53625 5.44375 3.8125 6.1875 C4 9 4 9 1.8125 11.8125 C-1 14 -1 14 -5 14 C-5 14.99 -5 15.98 -5 17 C-5.99 17.33 -6.98 17.66 -8 18 C-8.33 18.66 -8.66 19.32 -9 20 C-11.5625 20.625 -11.5625 20.625 -14 21 C-13.23286356 19.89326166 -12.46110997 18.78972306 -11.6875 17.6875 C-11.25824219 17.07261719 -10.82898438 16.45773438 -10.38671875 15.82421875 C-9 14 -9 14 -7.53125 12.625 C-5.4542292 10.42081467 -4.2268915 7.9841284 -2.8125 5.3125 C-2.28269531 4.31863281 -1.75289062 3.32476562 -1.20703125 2.30078125 C-0.80871094 1.54152344 -0.41039062 0.78226562 0 0 Z " fill="#8CAD4C" transform="translate(192,84)"/>
<path d="M0 0 C6.75 1.875 6.75 1.875 9 3 C8.47731534 5.76276177 7.89130413 8.3260876 7 11 C6.90811315 12.46914934 6.86933285 13.94204403 6.8671875 15.4140625 C6.86589844 16.25710937 6.86460938 17.10015625 6.86328125 17.96875 C6.86908203 19.28359375 6.86908203 19.28359375 6.875 20.625 C6.87113281 21.50929688 6.86726563 22.39359375 6.86328125 23.3046875 C6.86521484 24.56539062 6.86521484 24.56539062 6.8671875 25.8515625 C6.86831543 26.62322754 6.86944336 27.39489258 6.87060547 28.18994141 C6.8029448 30.02124049 6.8029448 30.02124049 8 31 C8.14115161 33.67058851 8.04247107 36.32432238 8 39 C4.62502674 37.90313369 1.30247071 36.73308466 -2 35.4375 C-5.30522541 34.17897186 -8.47776094 33.44027988 -12 33 C-12 32.67 -12 32.34 -12 32 C-8.04 31.67 -4.08 31.34 0 31 C0 31.66 0 32.32 0 33 C0.66 33 1.32 33 2 33 C2.06058594 31.95199219 2.12117188 30.90398437 2.18359375 29.82421875 C2.26801738 28.44529952 2.35266447 27.06639395 2.4375 25.6875 C2.47681641 24.99720703 2.51613281 24.30691406 2.55664062 23.59570312 C2.74927415 20.52838465 3.02322717 17.93031848 4 15 C4.068991 12.93854893 4.08467727 10.87498599 4.0625 8.8125 C4.05347656 7.72582031 4.04445313 6.63914062 4.03515625 5.51953125 C4.02355469 4.68808594 4.01195313 3.85664062 4 3 C2.68 2.34 1.36 1.68 0 1 C0 0.67 0 0.34 0 0 Z " fill="#951446" transform="translate(80,46)"/>
<path d="M0 0 C0 0.66 0 1.32 0 2 C0.66 2 1.32 2 2 2 C2.08820927 5.16648655 2.1407905 8.33265092 2.1875 11.5 C2.22520508 12.8303125 2.22520508 12.8303125 2.26367188 14.1875 C2.32980166 20.18326702 1.44131875 24.51504238 -1 30 C-1.66 30 -2.32 30 -3 30 C-3.0825 31.051875 -3.165 32.10375 -3.25 33.1875 C-4.05320762 37.27047209 -5.19334709 39.0122727 -8 42 C-8 39.69 -8 37.38 -8 35 C-7.01 35 -6.02 35 -5 35 C-5 32.69 -5 30.38 -5 28 C-4.34 28 -3.68 28 -3 28 C-2.67 20.74 -2.34 13.48 -2 6 C-2.66 6 -3.32 6 -4 6 C-4 5.34 -4 4.68 -4 4 C-4.99 3.67 -5.98 3.34 -7 3 C-3.375 0 -3.375 0 0 0 Z " fill="#F5A92D" transform="translate(146,56)"/>
<path d="M0 0 C0 0.66 0 1.32 0 2 C-2.31 2.66 -4.62 3.32 -7 4 C-7.02698189 5.62490954 -7.04638757 7.24994633 -7.0625 8.875 C-7.07410156 9.77992187 -7.08570313 10.68484375 -7.09765625 11.6171875 C-7.16249257 14.0168585 -7.16249257 14.0168585 -6 16 C-5.76725791 18.87910588 -5.58027243 21.74146495 -5.4375 24.625 C-5.39431641 25.42679688 -5.35113281 26.22859375 -5.30664062 27.0546875 C-5.20048543 29.0362511 -5.09973145 31.01810271 -5 33 C-2.03 33 0.94 33 4 33 C1.70218748 34.53187502 -0.49622866 35.85984978 -2.9375 37.125 C-3.60652344 37.47820312 -4.27554688 37.83140625 -4.96484375 38.1953125 C-7 39 -7 39 -11 39 C-10.83628906 37.9790625 -10.67257813 36.958125 -10.50390625 35.90625 C-9.69834356 29.46174846 -9.89467597 22.9828993 -9.9375 16.5 C-9.94426758 14.5509375 -9.94426758 14.5509375 -9.95117188 12.5625 C-9.9628908 9.37495175 -9.97929781 6.18750045 -10 3 C-6.27034861 0.96564469 -4.33094958 0 0 0 Z " fill="#FAC72F" transform="translate(162,46)"/>
<path d="M0 0 C4.90467384 0.07497591 9.52290657 1.27364749 14.26171875 2.453125 C15.18702393 2.67911377 16.1123291 2.90510254 17.06567383 3.13793945 C35.62704004 7.75594629 35.62704004 7.75594629 39.07421875 11.203125 C39.04134292 13.93181907 38.51024104 16.4997868 38.07421875 19.203125 C37.41421875 19.203125 36.75421875 19.203125 36.07421875 19.203125 C35.74421875 25.803125 35.41421875 32.403125 35.07421875 39.203125 C34.74421875 39.203125 34.41421875 39.203125 34.07421875 39.203125 C33.99255026 36.20256416 33.93340324 33.2042711 33.88671875 30.203125 C33.86158203 29.36394531 33.83644531 28.52476563 33.81054688 27.66015625 C33.7423951 21.79910371 34.7069304 17.57146394 37.07421875 12.203125 C36.49414062 12.00976562 35.9140625 11.81640625 35.31640625 11.6171875 C34.53523438 11.35679688 33.7540625 11.09640625 32.94921875 10.828125 C32.12035156 10.55355469 31.29148438 10.27898438 30.4375 9.99609375 C28.66269701 9.40058134 26.89714742 8.7773758 25.13671875 8.140625 C20.84077487 6.82554014 16.48404346 6.0439087 12.07421875 5.203125 C9.36492685 4.66622895 6.65711626 4.12200393 3.94921875 3.578125 C2.6341387 3.31498361 1.31903645 3.05195312 0.00390625 2.7890625 C-0.96289062 2.59570312 -1.9296875 2.40234375 -2.92578125 2.203125 C-2.92578125 5.173125 -2.92578125 8.143125 -2.92578125 11.203125 C-3.25578125 11.203125 -3.58578125 11.203125 -3.92578125 11.203125 C-3.95266276 9.55737934 -3.97212248 7.91151087 -3.98828125 6.265625 C-3.99988281 5.34910156 -4.01148438 4.43257812 -4.0234375 3.48828125 C-3.87594578 0.03697501 -3.50180747 0.24311614 0 0 Z " fill="#E5C2CF" transform="translate(51.92578125,36.796875)"/>
<path d="M0 0 C0.495 1.485 0.495 1.485 1 3 C-8.09023119 14.36965472 -20.0882242 25.11153138 -35 27 C-37.79361804 27.1085469 -40.57985634 27.09535431 -43.375 27.0625 C-44.11105469 27.05798828 -44.84710938 27.05347656 -45.60546875 27.04882812 C-47.40368158 27.03715142 -49.20185197 27.01922011 -51 27 C-51 26.34 -51 25.68 -51 25 C-49.89785156 25.020625 -48.79570312 25.04125 -47.66015625 25.0625 C-31.94904253 25.00485415 -20.46120259 20.7341091 -9.12158203 9.71704102 C-6.00078532 6.54914979 -2.96292932 3.31587448 0 0 Z " fill="#E0EACE" transform="translate(217,114)"/>
<path d="M0 0 C1.6953125 2.6171875 1.6953125 2.6171875 3.125 5.875 C5.34301632 10.95193739 5.34301632 10.95193739 9 15 C8.67 15.66 8.34 16.32 8 17 C5.5 15.625 5.5 15.625 3 14 C3 13.34 3 12.68 3 12 C1.68 12 0.36 12 -1 12 C-0.67 10.02 -0.34 8.04 0 6 C-0.99 6 -1.98 6 -3 6 C-3 6.66 -3 7.32 -3 8 C-4.32 7.67 -5.64 7.34 -7 7 C-7 6.34 -7 5.68 -7 5 C-10.3 5.33 -13.6 5.66 -17 6 C-14.3671851 3.3671851 -12.88536023 2.24108625 -9.625 0.75 C-8.87476563 0.39421875 -8.12453125 0.0384375 -7.3515625 -0.328125 C-4.37240581 -1.17931263 -2.88218521 -1.16971802 0 0 Z " fill="#EA7AAA" transform="translate(49,84)"/>
<path d="M0 0 C1.76986575 0.14305553 3.53932419 0.29115682 5.30859375 0.44140625 C6.29400146 0.52334229 7.27940918 0.60527832 8.29467773 0.68969727 C11.40966298 1.04698869 14.05582854 1.93508692 17 3 C19.53780608 3.52380318 22.08012138 3.99217071 24.6328125 4.4375 C27.00093524 5.00022224 28.87697721 5.82597818 31 7 C28.66705225 7.04241723 26.33297433 7.04092937 24 7 C23.67 6.67 23.34 6.34 23 6 C21.66197814 5.77486899 20.31426977 5.60639193 18.96484375 5.46484375 C18.15595703 5.37783203 17.34707031 5.29082031 16.51367188 5.20117188 C15.66353516 5.11416016 14.81339844 5.02714844 13.9375 4.9375 C12.65649414 4.80118164 12.65649414 4.80118164 11.34960938 4.66210938 C9.23348465 4.43749278 7.11679106 4.21824773 5 4 C4.67 3.01 4.34 2.02 4 1 C3.01 1 2.02 1 1 1 C1.1546875 1.96292969 1.309375 2.92585938 1.46875 3.91796875 C2.10451137 8.37165623 2.30325736 12.8214795 2.5 17.3125 C2.81478864 23.90398342 3.24735499 30.44123636 4 37 C8.62 37 13.24 37 18 37 C18.33 37.66 18.66 38.32 19 39 C13.72 38.67 8.44 38.34 3 38 C1.43881561 32.53585464 0.72231011 29.01278956 0.5859375 23.53515625 C0.56657135 22.85698349 0.5472052 22.17881073 0.5272522 21.48008728 C0.46808001 19.34101434 0.42132481 17.20188572 0.375 15.0625 C0.33676255 13.60088964 0.29770758 12.13930043 0.2578125 10.67773438 C0.16243181 7.11868457 0.07817433 3.55947413 0 0 Z " fill="#A44167" transform="translate(49,39)"/>
<path d="M0 0 C2.625 -0.0625 2.625 -0.0625 6 1 C7.69269161 2.96781228 8.9575998 5.05242881 10.30078125 7.2734375 C12.19665452 10.31555139 14.31107851 13.09960179 16.5 15.9375 C27.14676343 30.06701825 27.14676343 30.06701825 26.83984375 34.109375 C25.38954751 37.37422792 22.80051358 38.85492577 20 41 C19.34 40.67 18.68 40.34 18 40 C18.66 39.01 19.32 38.02 20 37 C20.66 37 21.32 37 22 37 C22 36.34 22 35.68 22 35 C22.99 35 23.98 35 25 35 C22.67451935 28.6709446 19.12889191 23.7796227 15.0625 18.4375 C13.82300604 16.79127697 12.58469556 15.1441621 11.34765625 13.49609375 C10.47536377 12.33980469 10.47536377 12.33980469 9.58544922 11.16015625 C8.2178099 9.29676348 6.94235134 7.41212836 5.69921875 5.46484375 C4.23666741 2.84957925 4.23666741 2.84957925 1.75 2.125 C0.88375 2.063125 0.88375 2.063125 0 2 C-0.2475 2.721875 -0.495 3.44375 -0.75 4.1875 C-2.12269592 7.27606582 -3.72353296 9.51011418 -6 12 C-6.66 12 -7.32 12 -8 12 C-6.59023295 8.96147295 -4.91129772 6.4060405 -2.875 3.75 C-2.06675781 2.69039062 -2.06675781 2.69039062 -1.2421875 1.609375 C-0.83226563 1.07828125 -0.42234375 0.5471875 0 0 Z " fill="#FDE8E3" transform="translate(118,14)"/>
<path d="M0 0 C0.33 0 0.66 0 1 0 C1.02941647 4.27081848 1.04693715 8.54161034 1.0625 12.8125 C1.07087891 14.00810547 1.07925781 15.20371094 1.08789062 16.43554688 C1.13091663 32.22609073 1.13091663 32.22609073 0 38 C-2.81637036 40.81637036 -5.65791968 40.41672127 -9.4375 40.5625 C-14.79409265 40.77434943 -14.79409265 40.77434943 -20 42 C-21.39439664 42.06665376 -22.79169875 42.08538199 -24.1875 42.0625 C-25.445625 42.041875 -26.70375 42.02125 -28 42 C-20.65907692 37.10605128 -11.54246091 37.45591786 -3 37 C-1.68717674 24.67475639 -0.60941224 12.38069085 0 0 Z " fill="#FEF3CE" transform="translate(191,39)"/>
<path d="M0 0 C0.33 0.99 0.66 1.98 1 3 C0.67 3.66 0.34 4.32 0 5 C-0.99 5 -1.98 5 -3 5 C-3 5.99 -3 6.98 -3 8 C4.92 7.505 4.92 7.505 13 7 C13.33 5.68 13.66 4.36 14 3 C15 2 15 2 17.28515625 1.90234375 C18.65994141 1.91974609 18.65994141 1.91974609 20.0625 1.9375 C20.98160156 1.94652344 21.90070313 1.95554687 22.84765625 1.96484375 C23.55792969 1.97644531 24.26820313 1.98804687 25 2 C24.67 2.66 24.34 3.32 24 4 C21.67843403 4.40729228 19.3431213 4.74438677 17 5 C17 5.66 17 6.32 17 7 C15.41058594 7.30744141 15.41058594 7.30744141 13.7890625 7.62109375 C12.40101178 7.89307666 11.01299256 8.16522044 9.625 8.4375 C8.92632812 8.57220703 8.22765625 8.70691406 7.5078125 8.84570312 C3.64371266 9.5772422 3.64371266 9.5772422 0 11 C-2.6723621 11.13415472 -5.32250488 11.04318541 -8 11 C-7.49268371 6.60325886 -4.88085945 4.16191891 -2 1 C-1.34 0.67 -0.68 0.34 0 0 Z " fill="#BDCC63" transform="translate(138,106)"/>
<path d="M0 0 C-2.64 0.99 -5.28 1.98 -8 3 C-8 3.66 -8 4.32 -8 5 C-6.68 4.67 -5.36 4.34 -4 4 C-3.67 4.66 -3.34 5.32 -3 6 C-5.97 6 -8.94 6 -12 6 C-12.33 6.99 -12.66 7.98 -13 9 C-16.94120709 8.43697042 -19.7508723 7.3208055 -23 5 C-23 4.34 -23 3.68 -23 3 C-19.91979223 2.29795962 -16.83548264 1.61594792 -13.75 0.9375 C-12.87730469 0.73833984 -12.00460938 0.53917969 -11.10546875 0.33398438 C-10.26113281 0.15029297 -9.41679687 -0.03339844 -8.546875 -0.22265625 C-7.77182617 -0.39547119 -6.99677734 -0.56828613 -6.19824219 -0.74633789 C-4 -1 -4 -1 0 0 Z " fill="#7DA532" transform="translate(154,120)"/>
<path d="M0 0 C6.875 0.875 6.875 0.875 8 2 C14.60673861 2.9590427 21.14872593 3.10402875 27.8125 3.125 C28.63669434 3.12959229 29.46088867 3.13418457 30.31005859 3.13891602 C34.33801283 3.12865946 38.06984889 3.00446053 42 2 C42 1.34 42 0.68 42 0 C42.99 0.33 43.98 0.66 45 1 C40.0021728 5.9978272 34.20209444 6.40892698 27.45703125 6.51757812 C26.41933594 6.51177734 25.38164062 6.50597656 24.3125 6.5 C23.24773437 6.49935547 22.18296875 6.49871094 21.0859375 6.49804688 C13.10589961 6.34665081 6.90256945 5.23841984 0 1 C0 0.67 0 0.34 0 0 Z " fill="#86A746" transform="translate(148,133)"/>
<path d="M0 0 C4.19310302 2.20807021 6.77921658 4.76389701 9.75 8.4375 C10.52859375 9.38496094 11.3071875 10.33242187 12.109375 11.30859375 C13.78762378 13.69767104 14.59680503 15.15747546 15 18 C7.1332874 17.57477229 -0.36190145 16.97537032 -8 15 C-8 14.67 -8 14.34 -8 14 C-2.06 14 3.88 14 10 14 C9.01 12.35 8.02 10.7 7 9 C6.690625 8.2575 6.38125 7.515 6.0625 6.75 C5.12684592 4.79252374 5.12684592 4.79252374 2.875 4.25 C2.25625 4.1675 1.6375 4.085 1 4 C0.67 2.68 0.34 1.36 0 0 Z " fill="#F0AECA" transform="translate(93,98)"/>
<path d="M0 0 C5.54741379 0.49310345 5.54741379 0.49310345 7.5625 2.75 C8.036875 3.4925 8.51125 4.235 9 5 C9.825 5.825 10.65 6.65 11.5 7.5 C15.41247183 11.41247183 17.33582378 14.34329513 18.6875 19.75 C18.93886719 20.73484375 19.19023438 21.7196875 19.44921875 22.734375 C19.63097656 23.48203125 19.81273438 24.2296875 20 25 C19.53722656 24.53078125 19.07445313 24.0615625 18.59765625 23.578125 C17.05499771 21.99944607 17.05499771 21.99944607 15.4375 20.75 C14 19 14 19 13.1875 15.5 C12.35226775 11.74540616 12.35226775 11.74540616 8.9375 10.3125 C7.4834375 9.6628125 7.4834375 9.6628125 6 9 C5.125 6.8125 5.125 6.8125 5 5 C3.35 5 1.7 5 0 5 C0 3.35 0 1.7 0 0 Z " fill="#EA7326" transform="translate(95,57)"/>
<path d="M0 0 C-13.90121076 7.17756392 -29.55813916 10.60902247 -44.98828125 6.64453125 C-48.1092881 5.64459702 -51.03209905 4.38923023 -54 3 C-51 2 -51 2 -48.0234375 3.40234375 C-43.03259065 5.69123134 -38.03764312 5.57234662 -32.625 5.5625 C-31.57094971 5.56515869 -30.51689941 5.56781738 -29.4309082 5.57055664 C-20.90471991 5.40421409 -13.94282174 3.58091866 -6.16796875 0.21484375 C-3 -1 -3 -1 0 0 Z " fill="#FBDDEB" transform="translate(98,133)"/>
<path d="M0 0 C0.67095703 0.58007812 0.67095703 0.58007812 1.35546875 1.171875 C13.37756719 11.91965593 13.37756719 11.91965593 28 18 C28 18.66 28 19.32 28 20 C28.85271484 20.07347656 28.85271484 20.07347656 29.72265625 20.1484375 C34.71081129 20.63143081 39.22599578 21.47638163 44 23 C44 23.33 44 23.66 44 24 C30.44087708 23.65633559 17.74505937 18.08556793 7 10 C7 9.34 7 8.68 7 8 C6.34 8 5.68 8 5 8 C0 2.52380952 0 2.52380952 0 0 Z " fill="#FCEEF4" transform="translate(57,93)"/>
<path d="M0 0 C-2.91765 1.9451 -4.62537285 2.45276317 -8 3 C-0.98358518 11.23991776 16.63512646 17.56720866 27 19 C27 19.33 27 19.66 27 20 C14.19525717 21.16406753 2.48301799 13.47995623 -8 7 C-8.66 6.34 -9.32 5.68 -10 5 C-10 4.01 -10 3.02 -10 2 C-6.49223216 0.39644899 -3.85645121 -0.22036864 0 0 Z " fill="#EBF2DF" transform="translate(139,120)"/>
<path d="M0 0 C3.3 0 6.6 0 10 0 C10.66 1.32 11.32 2.64 12 4 C14.0335948 5.26804566 14.0335948 5.26804566 16 6 C16 6.66 16 7.32 16 8 C23.26 8 30.52 8 38 8 C38 8.33 38 8.66 38 9 C34.20860154 9.11771717 30.41768265 9.18775198 26.625 9.25 C25.03365234 9.30027344 25.03365234 9.30027344 23.41015625 9.3515625 C14.59568589 9.45971551 6.83186355 7.91125782 0 2 C0 1.34 0 0.68 0 0 Z " fill="#E981AD" transform="translate(40,130)"/>
<path d="M0 0 C3.72833985 3.58160733 6.94529974 7.31817044 10.0625 11.4375 C10.69381836 12.25831055 10.69381836 12.25831055 11.33789062 13.09570312 C19 23.13366037 19 23.13366037 19 28 C18.34 28 17.68 28 17 28 C16.51080078 27.06027344 16.51080078 27.06027344 16.01171875 26.1015625 C15.57472656 25.28429687 15.13773438 24.46703125 14.6875 23.625 C14.25824219 22.81289063 13.82898438 22.00078125 13.38671875 21.1640625 C12.03221276 18.73165957 12.03221276 18.73165957 9 17 C8.814375 15.8553125 8.814375 15.8553125 8.625 14.6875 C7.76728113 10.99930886 5.76600947 9.49615489 3 7 C2.34 6.34 1.68 5.68 1 5 C0.34 5.66 -0.32 6.32 -1 7 C-0.67 4.69 -0.34 2.38 0 0 Z " fill="#E76F5C" transform="translate(124,21)"/>
<path d="M0 0 C0.2375298 4.19240091 0.14903014 6.56371232 -2.5 9.875 C-3.19609375 10.76832031 -3.19609375 10.76832031 -3.90625 11.6796875 C-4.2671875 12.11539063 -4.628125 12.55109375 -5 13 C-6.33332095 10.3333581 -5.67102033 8.83319697 -5 6 C-4.34 6 -3.68 6 -3 6 C-3 5.01 -3 4.02 -3 3 C-3.7425 3.165 -4.485 3.33 -5.25 3.5 C-10.50409401 4.20054587 -15.70751749 4.07707499 -21 4 C-20 2 -20 2 -16.6875 0.875 C-11.17531978 -0.41017135 -5.62450319 -0.1687351 0 0 Z " fill="#B4C74E" transform="translate(186,82)"/>
<path d="M0 0 C-1.3584202 3.04332765 -2.88463024 5.12309151 -5.2578125 7.453125 C-5.88300781 8.071875 -6.50820312 8.690625 -7.15234375 9.328125 C-7.80332031 9.96234375 -8.45429688 10.5965625 -9.125 11.25 C-9.78371094 11.8996875 -10.44242188 12.549375 -11.12109375 13.21875 C-12.74296643 14.81711727 -14.3693281 16.41061897 -16 18 C-16.33 16.68 -16.66 15.36 -17 14 C-16.01 14 -15.02 14 -14 14 C-14 13.34 -14 12.68 -14 12 C-14.66 12 -15.32 12 -16 12 C-15.67 10.68 -15.34 9.36 -15 8 C-14.38125 7.855625 -13.7625 7.71125 -13.125 7.5625 C-10.96741678 7.06847775 -10.96741678 7.06847775 -9 6 C-8.87625 5.360625 -8.7525 4.72125 -8.625 4.0625 C-8 2 -8 2 -6.1875 0.75 C-4 0 -4 0 0 0 Z " fill="#83A83F" transform="translate(225,105)"/>
<path d="M0 0 C0 0.66 0 1.32 0 2 C-1.32 2 -2.64 2 -4 2 C-4.66 3.65 -5.32 5.3 -6 7 C-7.32 7 -8.64 7 -10 7 C-9.979375 7.7425 -9.95875 8.485 -9.9375 9.25 C-11.25261547 12.65382828 -12.2005224 12.89138526 -15.4375 14.375 C-17.87109375 15.3984375 -17.87109375 15.3984375 -20 16 C-20.66 15.67 -21.32 15.34 -22 15 C-7.58823529 0 -7.58823529 0 0 0 Z " fill="#ACC234" transform="translate(161,88)"/>
<path d="M0 0 C0.8971875 0.309375 0.8971875 0.309375 1.8125 0.625 C1.4825 1.945 1.1525 3.265 0.8125 4.625 C0.8125 3.965 0.8125 3.305 0.8125 2.625 C-2.8005163 4.45187843 -2.8005163 4.45187843 -6.1875 6.625 C-6.8300235 8.69374034 -6.8300235 8.69374034 -7.1875 10.625 C-8.85416667 11.29166667 -10.52083333 11.95833333 -12.1875 12.625 C-13.0112956 14.58628755 -13.0112956 14.58628755 -13.1875 16.625 C-13.5175 17.285 -13.8475 17.945 -14.1875 18.625 C-14.8475 18.625 -15.5075 18.625 -16.1875 18.625 C-16.1875 19.615 -16.1875 20.605 -16.1875 21.625 C-16.8475 21.625 -17.5075 21.625 -18.1875 21.625 C-18.5175 22.615 -18.8475 23.605 -19.1875 24.625 C-17.98345515 15.96213183 -11.32132701 7.67069731 -5.1875 1.625 C-2.1875 -0.375 -2.1875 -0.375 0 0 Z " fill="#F4C36E" transform="translate(145.1875,53.375)"/>
<path d="M0 0 C1.80330533 3.60661066 2.46599103 6.08393425 3 10 C3.33 7.69 3.66 5.38 4 3 C4.33 3 4.66 3 5 3 C5 11.25 5 19.5 5 28 C4.67 28 4.34 28 4 28 C3.67 24.7 3.34 21.4 3 18 C2.67 21.3 2.34 24.6 2 28 C1.67 28 1.34 28 1 28 C0.67 18.76 0.34 9.52 0 0 Z " fill="#FEF5EA" transform="translate(117,86)"/>
<path d="M0 0 C0.33 0 0.66 0 1 0 C1.08820927 3.16648655 1.1407905 6.33265092 1.1875 9.5 C1.22520508 10.8303125 1.22520508 10.8303125 1.26367188 12.1875 C1.32980166 18.18326702 0.44131875 22.51504238 -2 28 C-2.66 28 -3.32 28 -4 28 C-4.0825 29.051875 -4.165 30.10375 -4.25 31.1875 C-5.05320762 35.27047209 -6.19334709 37.0122727 -9 40 C-9 37.69 -9 35.38 -9 33 C-8.01 33 -7.02 33 -6 33 C-6 30.69 -6 28.38 -6 26 C-5.34 26 -4.68 26 -4 26 C-4 24.68 -4 23.36 -4 22 C-3.34 22 -2.68 22 -2 22 C-1.2204542 19.19252545 -0.8289851 16.57970192 -0.68359375 13.671875 C-0.64169922 12.87265625 -0.59980469 12.0734375 -0.55664062 11.25 C-0.51732422 10.425 -0.47800781 9.6 -0.4375 8.75 C-0.39431641 7.90953125 -0.35113281 7.0690625 -0.30664062 6.203125 C-0.20091457 4.13559329 -0.09998705 2.06781719 0 0 Z " fill="#F6C16A" transform="translate(147,58)"/>
<path d="M0 0 C0.99 0.33 1.98 0.66 3 1 C2.01 1.495 2.01 1.495 1 2 C0.53248212 4.35599235 0.53248212 4.35599235 0.375 7.0625 C0.30023438 7.98160156 0.22546875 8.90070312 0.1484375 9.84765625 C0.09945312 10.55792969 0.05046875 11.26820312 0 12 C0.66 12 1.32 12 2 12 C2 21.57 2 31.14 2 41 C1.67 41 1.34 41 1 41 C-1.69471717 12.39013042 -1.69471717 12.39013042 -1 1 C-0.67 0.67 -0.34 0.34 0 0 Z " fill="#F0D6E0" transform="translate(48,36)"/>
<path d="M0 0 C6.28403531 -0.50474179 10.64245661 1.14372089 16.3125 3.75 C17.12267578 4.09804687 17.93285156 4.44609375 18.76757812 4.8046875 C19.54166016 5.15273437 20.31574219 5.50078125 21.11328125 5.859375 C21.81235596 6.17358398 22.51143066 6.48779297 23.23168945 6.81152344 C25.38107851 8.2561218 26.03861038 9.63016374 27 12 C26.42185547 11.70561035 25.84371094 11.4112207 25.24804688 11.10791016 C21.73048677 9.37434285 18.11754458 7.88589298 14.5 6.375 C13.74074219 6.05015625 12.98148438 5.7253125 12.19921875 5.390625 C11.09513672 4.93042969 11.09513672 4.93042969 9.96875 4.4609375 C8.97004883 4.04013916 8.97004883 4.04013916 7.95117188 3.61083984 C5.70454092 2.80082367 5.70454092 2.80082367 2 3 C1.01 4.98 0.02 6.96 -1 9 C-2.60031344 5.79937313 -1.03173691 3.27728194 0 0 Z " fill="#E6EED7" transform="translate(190,82)"/>
<path d="M0 0 C0.66 0.33 1.32 0.66 2 1 C-0.7819368 4.27286682 -4.27954067 5.96427697 -8 8 C-7.360625 8.53625 -6.72125 9.0725 -6.0625 9.625 C-3.61470596 12.44367193 -3.33285388 14.33860732 -3 18 C-4.12588014 17.04270084 -5.2506715 16.08412105 -6.375 15.125 C-7.00148438 14.59132813 -7.62796875 14.05765625 -8.2734375 13.5078125 C-9.55836651 12.38567993 -10.79371975 11.20628025 -12 10 C-12 8.68 -12 7.36 -12 6 C-10.04669132 4.96958487 -8.08718472 3.9509107 -6.125 2.9375 C-5.03445312 2.36902344 -3.94390625 1.80054687 -2.8203125 1.21484375 C-1.42425781 0.61349609 -1.42425781 0.61349609 0 0 Z " fill="#E77EAB" transform="translate(23,93)"/>
<path d="M0 0 C0.33 0 0.66 0 1 0 C1 6.6 1 13.2 1 20 C1.66 20 2.32 20 3 20 C3 19.01 3 18.02 3 17 C3.763125 16.814375 4.52625 16.62875 5.3125 16.4375 C9.04822018 14.43932409 9.4042639 11.81589066 11 8 C13.1875 7.0625 13.1875 7.0625 15 7 C13.48443924 12.00135052 10.46679167 15.23911032 7 19 C6.278125 19.804375 5.55625 20.60875 4.8125 21.4375 C3 23 3 23 0 23 C0 15.41 0 7.82 0 0 Z " fill="#F2B956" transform="translate(123,91)"/>
<path d="M0 0 C1.39745769 2.27897635 2.52768531 4.39695107 3.625 6.8125 C3.9240625 7.44220703 4.223125 8.07191406 4.53125 8.72070312 C5.36375132 10.4759548 6.18233391 12.23778859 7 14 C7.66069244 15.33630375 8.32397921 16.67138489 9 18 C4.81399796 15.06195427 2.84419162 12.36431695 0.6875 7.75 C0.17574219 6.67234375 -0.33601563 5.5946875 -0.86328125 4.484375 C-1.23839844 3.66453125 -1.61351563 2.8446875 -2 2 C-6.58523473 2.77242306 -10.46131095 4.39176318 -14.6953125 6.2578125 C-17 7 -17 7 -20 6 C-17.42249905 4.79816525 -14.83928838 3.61343114 -12.25 2.4375 C-11.52039062 2.09525391 -10.79078125 1.75300781 -10.0390625 1.40039062 C-9.33007812 1.08134766 -8.62109375 0.76230469 -7.890625 0.43359375 C-7.24125977 0.13509521 -6.59189453 -0.16340332 -5.92285156 -0.47094727 C-3.52883016 -1.12963751 -2.28516903 -0.94981993 0 0 Z " fill="#FDEAF3" transform="translate(50,82)"/>
<path d="M0 0 C0.33 0 0.66 0 1 0 C0.85899143 2.27113803 0.71203245 4.54190725 0.5625 6.8125 C0.48128906 8.07707031 0.40007812 9.34164062 0.31640625 10.64453125 C0 14 0 14 -1 17 C-1.14835948 18.77166975 -1.24770018 20.54767612 -1.31640625 22.32421875 C-1.35830078 23.35224609 -1.40019531 24.38027344 -1.44335938 25.43945312 C-1.48267578 26.51130859 -1.52199219 27.58316406 -1.5625 28.6875 C-1.60568359 29.77095703 -1.64886719 30.85441406 -1.69335938 31.97070312 C-1.79946838 34.64700791 -1.90152361 37.32340526 -2 40 C-2.33 40 -2.66 40 -3 40 C-3.04987075 36.01647832 -3.08593964 32.0330805 -3.10986328 28.04931641 C-3.12472879 26.03671881 -3.150157 24.02420812 -3.17578125 22.01171875 C-3.21614712 13.97891007 -2.53326364 7.59979093 0 0 Z " fill="#F9D89D" transform="translate(125,74)"/>
<path d="M0 0 C2.31 0 4.62 0 7 0 C6.2575 0.5775 5.515 1.155 4.75 1.75 C0.40338839 5.30631859 -1.94032575 7.78215857 -4 13 C-4.99 13.66 -5.98 14.32 -7 15 C-8.00168531 16.94832935 -8.00168531 16.94832935 -8.6875 19.125 C-8.93886719 19.84945312 -9.19023438 20.57390625 -9.44921875 21.3203125 C-9.63097656 21.87460938 -9.81273438 22.42890625 -10 23 C-11.24727575 20.5054485 -10.88934597 19.60628506 -10.25 16.9375 C-10.01023437 15.86822266 -10.01023437 15.86822266 -9.765625 14.77734375 C-9.51296875 14.19082031 -9.2603125 13.60429688 -9 13 C-8.01 12.67 -7.02 12.34 -6 12 C-6.04125 11.21625 -6.0825 10.4325 -6.125 9.625 C-6 7 -6 7 -4 5 C-3.01 5 -2.02 5 -1 5 C-0.67 3.35 -0.34 1.7 0 0 Z " fill="#E9654E" transform="translate(133,50)"/>
<path d="M0 0 C6.75 1.875 6.75 1.875 9 3 C8.47731534 5.76276177 7.89130413 8.3260876 7 11 C6.85596652 12.33363703 6.75409577 13.67218046 6.68359375 15.01171875 C6.64169922 15.76904297 6.59980469 16.52636719 6.55664062 17.30664062 C6.51732422 18.09232422 6.47800781 18.87800781 6.4375 19.6875 C6.39431641 20.48478516 6.35113281 21.28207031 6.30664062 22.10351562 C6.20072632 24.06881447 6.09987449 26.03438496 6 28 C5.67 28 5.34 28 5 28 C4.83135856 24.95843125 4.66502247 21.91676547 4.5 18.875 C4.45230469 18.0190625 4.40460938 17.163125 4.35546875 16.28125 C4.11674356 11.84778214 3.94174405 7.44201651 4 3 C2.68 2.34 1.36 1.68 0 1 C0 0.67 0 0.34 0 0 Z " fill="#951E4D" transform="translate(80,46)"/>
<path d="M0 0 C2.0625 0.25 2.0625 0.25 4 1 C4.33 1.66 4.66 2.32 5 3 C3.35 2.67 1.7 2.34 0 2 C-1.12256971 7.60341521 -1.32721317 13.1818301 -1.5625 18.875 C-1.60568359 19.84953125 -1.64886719 20.8240625 -1.69335938 21.828125 C-1.79882274 24.21862802 -1.90094175 26.60922444 -2 29 C-2.33 29 -2.66 29 -3 29 C-4.64301954 19.96339254 -4.92567811 10.77703434 -2 2 C-1.34 1.34 -0.68 0.68 0 0 Z " fill="#FEF4ED" transform="translate(94,51)"/>
<path d="M0 0 C0.69921875 1.7421875 0.69921875 1.7421875 1 4 C-0.29296875 6.0703125 -0.29296875 6.0703125 -2.1875 8.125 C-2.79980469 8.80820313 -3.41210938 9.49140625 -4.04296875 10.1953125 C-6 12 -6 12 -8.17578125 13.0546875 C-10.35966133 13.91763033 -10.35966133 13.91763033 -11 17 C-11.66 16.67 -12.32 16.34 -13 16 C-12.34 14.02 -11.68 12.04 -11 10 C-9.35 10 -7.7 10 -6 10 C-6 8.68 -6 7.36 -6 6 C-5.34 6 -4.68 6 -4 6 C-4 5.01 -4 4.02 -4 3 C-2.68 2.67 -1.36 2.34 0 2 C0 1.34 0 0.68 0 0 Z " fill="#B0C33E" transform="translate(180,89)"/>
<path d="M0 0 C2.97 0.495 2.97 0.495 6 1 C6.33 3.64 6.66 6.28 7 9 C7.66 9 8.32 9 9 9 C9 10.32 9 11.64 9 13 C9.66 13 10.32 13 11 13 C11 13.99 11 14.98 11 16 C11.99 16 12.98 16 14 16 C13.67 16.99 13.34 17.98 13 19 C9.30084131 17.7669471 8.64562276 16.10660909 6.83984375 12.78125 C6 11 6 11 5.4375 8.6875 C5.09094144 6.57947354 5.09094144 6.57947354 2 5 C0.8125 2.375 0.8125 2.375 0 0 Z " fill="#E87D69" transform="translate(108,57)"/>
<path d="M0 0 C1.89551022 -0.05441656 3.7914792 -0.09298035 5.6875 -0.125 C6.74324219 -0.14820312 7.79898438 -0.17140625 8.88671875 -0.1953125 C12.02251859 0.00141271 14.17645373 0.66942346 17 2 C13.73086376 3.03115279 11.13958652 2.9638984 7.75 2.5625 C6.85796875 2.46066406 5.9659375 2.35882813 5.046875 2.25390625 C4.37140625 2.17011719 3.6959375 2.08632812 3 2 C3 3.32 3 4.64 3 6 C3.99 6.33 4.98 6.66 6 7 C5.67 8.32 5.34 9.64 5 11 C2.65808437 8.8709858 1.16445046 6.95591271 0 4 C0 2.68 0 1.36 0 0 Z " fill="#EFAAC7" transform="translate(55,83)"/>
<path d="M0 0 C0.33 0.99 0.66 1.98 1 3 C-0.04800781 3.06058594 -1.09601563 3.12117188 -2.17578125 3.18359375 C-3.55470048 3.26801738 -4.93360605 3.35266447 -6.3125 3.4375 C-7.34793945 3.49647461 -7.34793945 3.49647461 -8.40429688 3.55664062 C-11.47161535 3.74927415 -14.06968152 4.02322717 -17 5 C-18.39439664 5.06665376 -19.79169875 5.08538199 -21.1875 5.0625 C-23.0746875 5.0315625 -23.0746875 5.0315625 -25 5 C-17.65907692 0.10605128 -8.54246091 0.45591786 0 0 Z " fill="#FDEAAF" transform="translate(188,76)"/>
<path d="M0 0 C5.80160774 1.48701402 10.57763179 2.72504406 15 7 C4.92704704 7.62521777 4.92704704 7.62521777 1.3125 5.1875 C0 3 0 3 0 0 Z " fill="#E7619B" transform="translate(74,114)"/>
<path d="M0 0 C0 0.66 0 1.32 0 2 C-2.31 2.66 -4.62 3.32 -7 4 C-7.33 11.92 -7.66 19.84 -8 28 C-8.33 28 -8.66 28 -9 28 C-9.33 19.75 -9.66 11.5 -10 3 C-4 0 -4 0 0 0 Z " fill="#F8D462" transform="translate(162,46)"/>
<path d="M0 0 C7.15595346 0.70156407 14.01855181 2.30785021 21 4 C21 4.66 21 5.32 21 6 C19.68 6.33 18.36 6.66 17 7 C17 7.66 17 8.32 17 9 C16.34 9 15.68 9 15 9 C14.67 7.68 14.34 6.36 14 5 C8.06 4.01 8.06 4.01 2 3 C2 2.34 2 1.68 2 1 C1.34 0.67 0.68 0.34 0 0 Z " fill="#E379A7" transform="translate(87,119)"/>
<path d="M0 0 C2 2 2 2 2 4 C2.66 4.33 3.32 4.66 4 5 C4 4.34 4 3.68 4 3 C5.98 2.67 7.96 2.34 10 2 C9.67 3.32 9.34 4.64 9 6 C7.68 6 6.36 6 5 6 C5 6.66 5 7.32 5 8 C0.58110387 6.64978174 -1.34345343 4.73884332 -4 1 C-2.68 1.33 -1.36 1.66 0 2 C0 1.34 0 0.68 0 0 Z " fill="#ED9FC1" transform="translate(66,96)"/>
<path d="M0 0 C6.4 0.64 6.4 0.64 9.5 2.5 C14.56690146 4.6715292 19.41538237 4.56983583 24.875 4.6875 C25.94492188 4.72166016 27.01484375 4.75582031 28.1171875 4.79101562 C30.74468689 4.87312498 33.37186816 4.94239624 36 5 C36 5.33 36 5.66 36 6 C9.82345757 7.03194763 9.82345757 7.03194763 0 1 C0 0.67 0 0.34 0 0 Z " fill="#A8BF7B" transform="translate(148,133)"/>
<path d="M0 0 C0.33 0 0.66 0 1 0 C1.33 1.98 1.66 3.96 2 6 C7.28 6.66 12.56 7.32 18 8 C18 8.33 18 8.66 18 9 C15.3753399 9.19430855 12.75053235 9.38073238 10.125 9.5625 C9.00544922 9.64661133 9.00544922 9.64661133 7.86328125 9.73242188 C2.2265625 10.11328125 2.2265625 10.11328125 0 9 C0 6.03 0 3.06 0 0 Z " fill="#E2BBCA" transform="translate(50,70)"/>
<path d="M0 0 C0.66 0.33 1.32 0.66 2 1 C1.48050781 1.66644531 0.96101563 2.33289063 0.42578125 3.01953125 C-4.38350665 9.37561415 -8.02565833 15.60704499 -11 23 C-12.0670453 19.51331675 -11.85475136 17.58055152 -10.30078125 14.21484375 C-7.33842857 9.17083783 -3.60211529 4.59892707 0 0 Z " fill="#FAD3CD" transform="translate(109,26)"/>
<path d="M0 0 C5.31838349 4.36867215 8.12960664 11.25445147 9 18 C8 17 7 16 6 15 C5.484375 14.5875 4.96875 14.175 4.4375 13.75 C1.3684771 10.0137982 0.84838915 4.66614035 0 0 Z " fill="#EC9057" transform="translate(106,64)"/>
<path d="M0 0 C0.99 0.495 0.99 0.495 2 1 C2 1.66 2 2.32 2 3 C2.515625 3.226875 3.03125 3.45375 3.5625 3.6875 C6.92403127 5.4975553 9.92911144 7.73996404 13 10 C9.8035914 11.06546953 7.34252724 11.07427838 4 11 C4 9.35 4 7.7 4 6 C3.34 6 2.68 6 2 6 C1.34 4.02 0.68 2.04 0 0 Z " fill="#EA72A5" transform="translate(58,101)"/>
<path d="M0 0 C1.09054688 0.02320312 2.18109375 0.04640625 3.3046875 0.0703125 C4.40039062 0.08835937 5.49609375 0.10640625 6.625 0.125 C7.46804687 0.14820312 8.31109375 0.17140625 9.1796875 0.1953125 C9.4172173 4.38771341 9.32871764 6.75902482 6.6796875 10.0703125 C6.215625 10.66585937 5.7515625 11.26140625 5.2734375 11.875 C4.73203125 12.52855469 4.73203125 12.52855469 4.1796875 13.1953125 C2.84636655 10.5286706 3.50866717 9.02850947 4.1796875 6.1953125 C5.4996875 5.8653125 6.8196875 5.5353125 8.1796875 5.1953125 C8.1796875 3.8753125 8.1796875 2.5553125 8.1796875 1.1953125 C1.7446875 1.6903125 1.7446875 1.6903125 -4.8203125 2.1953125 C-2.8203125 0.1953125 -2.8203125 0.1953125 0 0 Z " fill="#CCD885" transform="translate(176.8203125,81.8046875)"/>
<path d="M0 0 C0.33 0 0.66 0 1 0 C1 2.31 1 4.62 1 7 C0.0821875 7.06058594 -0.835625 7.12117188 -1.78125 7.18359375 C-8.218508 7.62311242 -14.60935705 8.10530999 -21 9 C-20.67 8.01 -20.34 7.02 -20 6 C-13.4 6 -6.8 6 0 6 C0 4.02 0 2.04 0 0 Z " fill="#F6CA3A" transform="translate(187,70)"/>
<path d="M0 0 C1.65 0 3.3 0 5 0 C5 0.66 5 1.32 5 2 C10.94 2.99 10.94 2.99 17 4 C17.33 3.01 17.66 2.02 18 1 C18 2.65 18 4.3 18 6 C14.40766804 6 11.86774374 5.59756467 8.4375 4.6875 C7.48746094 4.44386719 6.53742188 4.20023438 5.55859375 3.94921875 C2.96639132 2.98753143 1.74703892 2.09997608 0 0 Z " fill="#87A843" transform="translate(141,129)"/>
<path d="M0 0 C0 0.66 0 1.32 0 2 C-0.66 2 -1.32 2 -2 2 C-2.33 3.32 -2.66 4.64 -3 6 C-4.41377782 6.36552803 -5.83120576 6.71695495 -7.25 7.0625 C-8.03890625 7.25972656 -8.8278125 7.45695312 -9.640625 7.66015625 C-12 8 -12 8 -16 7 C-11.05 5.515 -11.05 5.515 -6 4 C-6 3.34 -6 2.68 -6 2 C-2.25 0 -2.25 0 0 0 Z " fill="#97B35D" transform="translate(170,111)"/>
<path d="M0 0 C0.33 0 0.66 0 1 0 C1.02715383 1.74991334 1.04646551 3.49994945 1.0625 5.25 C1.07410156 6.22453125 1.08570313 7.1990625 1.09765625 8.203125 C1.01195577 10.65758678 0.70706066 12.66168914 0 15 C2.31 15.33 4.62 15.66 7 16 C6.01 16.99 5.02 17.98 4 19 C0.50262565 17.83420855 -0.2990154 17.2229182 -2 14 C-1.85546875 10.546875 -1.85546875 10.546875 -1.1875 6.75 C-0.97480469 5.48671875 -0.76210937 4.2234375 -0.54296875 2.921875 C-0.36378906 1.95765625 -0.18460938 0.9934375 0 0 Z " fill="#FCFAEC" transform="translate(151,71)"/>
<path d="M0 0 C-0.97582031 0.27714844 -1.95164063 0.55429687 -2.95703125 0.83984375 C-4.24219751 1.205694 -5.52735321 1.57158136 -6.8125 1.9375 C-8.07707031 2.29714844 -9.34164062 2.65679687 -10.64453125 3.02734375 C-15.1949922 3.98643934 -15.1949922 3.98643934 -18.1875 7.0625 C-18.455625 7.701875 -18.72375 8.34125 -19 9 C-18.67 6.69 -18.34 4.38 -18 2 C-12.10607219 -0.21022293 -6.18900519 -1.82919487 0 0 Z " fill="#FCE9AD" transform="translate(170,44)"/>
<path d="M0 0 C2.64 0 5.28 0 8 0 C8.33 0.66 8.66 1.32 9 2 C6.83385197 4.30874711 4.60793392 6.05290181 1.9375 7.75 C1.24527344 8.19859375 0.55304688 8.6471875 -0.16015625 9.109375 C-0.76730469 9.40328125 -1.37445313 9.6971875 -2 10 C-2.66 9.67 -3.32 9.34 -4 9 C-3.34 8.01 -2.68 7.02 -2 6 C-0.68 6 0.64 6 2 6 C2 5.34 2 4.68 2 4 C3.32 3.67 4.64 3.34 6 3 C6 2.34 6 1.68 6 1 C4.02 1 2.04 1 0 1 C0 0.67 0 0.34 0 0 Z " fill="#F7D1E2" transform="translate(102,122)"/>
<path d="M0 0 C0.33 0.99 0.66 1.98 1 3 C-1.64 5.97 -4.28 8.94 -7 12 C-8.32 11.67 -9.64 11.34 -11 11 C-7.37 7.37 -3.74 3.74 0 0 Z " fill="#D9E5C4" transform="translate(217,114)"/>
<path d="M0 0 C2.64 0 5.28 0 8 0 C8 0.33 8 0.66 8 1 C6.02 1 4.04 1 2 1 C4.24643894 7.7791194 4.24643894 7.7791194 9 13 C8.67 13.66 8.34 14.32 8 15 C3.92704325 12.13792229 1.80612182 9.6578931 0 5 C-0.1875 2.125 -0.1875 2.125 0 0 Z " fill="#F8DDE9" transform="translate(53,82)"/>
<path d="M0 0 C0.66 0 1.32 0 2 0 C2 1.65 2 3.3 2 5 C2.66 5 3.32 5 4 5 C4 5.66 4 6.32 4 7 C0.7 6.67 -2.6 6.34 -6 6 C-4 4 -2 2 0 0 Z " fill="#8FAF52" transform="translate(176,105)"/>
<path d="M0 0 C0.99 0.66 1.98 1.32 3 2 C2.38888889 7.5 2.38888889 7.5 0.6875 9.6875 C-1.19223733 11.14951792 -3.0710868 12.60320079 -5 14 C-4.29288052 10.32297872 -2.66572483 7.33144966 -1 4 C-0.31363375 1.76474965 -0.31363375 1.76474965 0 0 Z " fill="#F9FBF1" transform="translate(187,81)"/>
<path d="M0 0 C0.33 0.99 0.66 1.98 1 3 C0.34 3 -0.32 3 -1 3 C-1.25523437 3.59296875 -1.51046875 4.1859375 -1.7734375 4.796875 C-3.11816498 7.21224538 -4.49214367 8.51211706 -6.625 10.25 C-7.25664062 10.77078125 -7.88828125 11.2915625 -8.5390625 11.828125 C-9.02117187 12.21484375 -9.50328125 12.6015625 -10 13 C-9.40912862 9.39811284 -7.98667144 7.49874402 -5.5625 4.8125 C-4.94503906 4.11769531 -4.32757813 3.42289062 -3.69140625 2.70703125 C-2 1 -2 1 0 0 Z " fill="#E3ECD4" transform="translate(228,103)"/>
<path d="M0 0 C3.23859087 1.61929544 3.67660913 4.74666411 5 8 C5.65288627 9.34013497 6.31225595 10.67741528 7 12 C7.99 12 8.98 12 10 12 C10 12.99 10 13.98 10 15 C7.67578125 14.80078125 7.67578125 14.80078125 5 14 C3.41796875 11.85546875 3.41796875 11.85546875 2.1875 9.1875 C1.76855469 8.31480469 1.34960938 7.44210938 0.91796875 6.54296875 C0 4 0 4 0 0 Z " fill="#FADCD6" transform="translate(112,63)"/>
<path d="M0 0 C-7.11389522 7.66742597 -7.11389522 7.66742597 -12 9 C-12.33 8.01 -12.66 7.02 -13 6 C-11.35 6 -9.7 6 -8 6 C-8 5.34 -8 4.68 -8 4 C-7.34 4 -6.68 4 -6 4 C-6 2.68 -6 1.36 -6 0 C-3 -1 -3 -1 0 0 Z " fill="#8FAD53" transform="translate(208,124)"/>
<path d="M0 0 C3.40312738 1.05875074 6.01353231 2.00902154 9 4 C8.6875 5.9375 8.6875 5.9375 8 8 C7.01 8.33 6.02 8.66 5 9 C5 7.35 5 5.7 5 4 C4.01 4 3.02 4 2 4 C1.34 2.68 0.68 1.36 0 0 Z " fill="#97B360" transform="translate(220,96)"/>
<path d="M0 0 C1.32 0 2.64 0 4 0 C4 0.99 4 1.98 4 3 C5.32 3 6.64 3 8 3 C8 4.65 8 6.3 8 8 C8.66 8 9.32 8 10 8 C9.67 8.66 9.34 9.32 9 10 C7.86800647 9.0919838 6.74467637 8.17316174 5.625 7.25 C4.99851562 6.73953125 4.37203125 6.2290625 3.7265625 5.703125 C1.91687682 3.91800519 0.99882545 2.32050356 0 0 Z " fill="#E875A6" transform="translate(20,111)"/>
<path d="M0 0 C0 3.5094654 -0.5925541 5.7829808 -2 9 C-4.5 10.8125 -4.5 10.8125 -7 12 C-7.99 12.495 -7.99 12.495 -9 13 C-7.50923566 9.7173068 -5.61379679 7.06922559 -3.375 4.25 C-2.74335937 3.45078125 -2.11171875 2.6515625 -1.4609375 1.828125 C-0.97882813 1.22484375 -0.49671875 0.6215625 0 0 Z " fill="#E87360" transform="translate(115,21)"/>
<path d="M0 0 C0 0.99 0 1.98 0 3 C-1.609375 4.53515625 -1.609375 4.53515625 -3.75 6.0625 C-4.44609375 6.56910156 -5.1421875 7.07570313 -5.859375 7.59765625 C-7.88601614 8.92532809 -9.74317198 10.11469958 -12 11 C-12.99 10.67 -13.98 10.34 -15 10 C-14.00419922 9.41992188 -14.00419922 9.41992188 -12.98828125 8.828125 C-8.41482889 6.13078959 -4.02747372 3.49047722 0 0 Z " fill="#EFF5E3" transform="translate(176,103)"/>
<path d="M0 0 C-5.89738492 2.29342747 -10.66606918 3.34548714 -17 3 C-14.08149788 1.05433192 -12.42377152 0.4847543 -9.0625 -0.1875 C-8.20785156 -0.36667969 -7.35320312 -0.54585938 -6.47265625 -0.73046875 C-3.98865141 -1.00123705 -2.35550498 -0.77059444 0 0 Z " fill="#9FBB6C" transform="translate(154,120)"/>
<path d="M0 0 C-1.49097658 3.7952131 -3.75700849 5.61042731 -7 8 C-7.1875 5.125 -7.1875 5.125 -7 2 C-4 0 -4 0 0 0 Z " fill="#8BAD4E" transform="translate(225,105)"/>
<path d="M0 0 C0.66 0.33 1.32 0.66 2 1 C0.7260411 3.03833424 -0.61061923 5.03852126 -2 7 C-2.66 7 -3.32 7 -4 7 C-4 7.66 -4 8.32 -4 9 C-5.65 9.33 -7.3 9.66 -9 10 C-8.06409496 8.8944811 -7.12620142 7.79064547 -6.1875 6.6875 C-5.66542969 6.07261719 -5.14335937 5.45773438 -4.60546875 4.82421875 C-3.12827531 3.14575321 -1.59960869 1.56117966 0 0 Z " fill="#C4D274" transform="translate(148,94)"/>
<path d="M0 0 C5.28137429 0.51525603 8.57221156 2.25477117 13 5 C9.37673261 6.2077558 8.35853631 5.54311128 5 4 C5 3.34 5 2.68 5 2 C3.02 2.33 1.04 2.66 -1 3 C-0.67 2.01 -0.34 1.02 0 0 Z " fill="#8EAD52" transform="translate(192,84)"/>
<path d="M0 0 C0 0.33 0 0.66 0 1 C-1.546875 1.4021875 -1.546875 1.4021875 -3.125 1.8125 C-5.78867631 2.55811325 -7.79855455 3.40681081 -10.3125 4.6875 C-11.199375 5.120625 -12.08625 5.55375 -13 6 C-13.66 5.67 -14.32 5.34 -15 5 C-10.37008461 -0.09290693 -6.62187269 -0.22072909 0 0 Z " fill="#EAEFC8" transform="translate(172,83)"/>
<path d="M0 0 C1.9375 0.375 1.9375 0.375 4 1 C4.33 1.66 4.66 2.32 5 3 C3.35 2.67 1.7 2.34 0 2 C-0.66 5.63 -1.32 9.26 -2 13 C-2.33 13 -2.66 13 -3 13 C-3.4726477 4.80743982 -3.4726477 4.80743982 -1.5 1.4375 C-0.7575 0.7259375 -0.7575 0.7259375 0 0 Z " fill="#FDEDE3" transform="translate(94,51)"/>
<path d="M0 0 C3 3.625 3 3.625 3 7 C3.66 7.33 4.32 7.66 5 8 C5 9.98 5 11.96 5 14 C3 13 3 13 2.1484375 11.07421875 C1.89320312 10.28660156 1.63796875 9.49898437 1.375 8.6875 C0.98441406 7.51767578 0.98441406 7.51767578 0.5859375 6.32421875 C0 4 0 4 0 0 Z " fill="#EF935D" transform="translate(93,75)"/>
<path d="M0 0 C0.33 0 0.66 0 1 0 C1.10957031 0.66386719 1.21914062 1.32773438 1.33203125 2.01171875 C2.22808182 7.00191905 3.18438706 10.70954218 6 15 C5.67 15.66 5.34 16.32 5 17 C-0.04292603 11.1436988 -0.12461727 7.47703625 0 0 Z " fill="#FCE0D1" transform="translate(92,74)"/>
<path d="M0 0 C4.0042343 3.49087093 5.62671065 5.64951939 6 11 C5.34 11 4.68 11 4 11 C0 4.5 0 4.5 0 0 Z " fill="#E6816F" transform="translate(137,38)"/>
<path d="M0 0 C0.99 0.495 0.99 0.495 2 1 C2 1.66 2 2.32 2 3 C5.63 3 9.26 3 13 3 C13 3.33 13 3.66 13 4 C11.58800422 4.39222105 10.17007236 4.76311059 8.75 5.125 C7.96109375 5.33382812 7.1721875 5.54265625 6.359375 5.7578125 C3.5796929 6.04314411 2.34112451 5.44977894 0 4 C0 2.68 0 1.36 0 0 Z " fill="#F7F9E9" transform="translate(128,114)"/>
<path d="M0 0 C2.21368294 2.21368294 3.86552921 3.93016625 4.265625 7.11328125 C4.25166986 9.07746787 4.13286356 11.0402625 4 13 C2 12 2 12 0.875 8.75 C0.14536518 5.62299365 -0.19234975 3.17377095 0 0 Z " fill="#EB762D" transform="translate(111,77)"/>
<path d="M0 0 C2.97 0.495 2.97 0.495 6 1 C6.33 3.64 6.66 6.28 7 9 C3.26115668 6.34345343 1.35021826 4.41889613 0 0 Z " fill="#E36550" transform="translate(108,57)"/>
<path d="M0 0 C0.33 0 0.66 0 1 0 C0.22095672 10.55808656 0.22095672 10.55808656 -2 15 C-2.97161849 11.94145449 -2.99142062 10.01744728 -2.125 6.9375 C-1.94195312 6.26589844 -1.75890625 5.59429687 -1.5703125 4.90234375 C-1.07756153 3.25871552 -0.54261564 1.62784691 0 0 Z " fill="#FEF0D7" transform="translate(125,74)"/>
<path d="M0 0 C8.57142857 1 8.57142857 1 12 2 C12 2.66 12 3.32 12 4 C12.66 4.33 13.32 4.66 14 5 C8.94744036 4.36843005 4.70406799 2.86540627 0 1 C0 0.67 0 0.34 0 0 Z " fill="#EDD1DC" transform="translate(56,38)"/>
<path d="M0 0 C1.32 0.33 2.64 0.66 4 1 C3.01 1 2.02 1 1 1 C0.7525 1.721875 0.505 2.44375 0.25 3.1875 C-1.12269592 6.27606582 -2.72353296 8.51011418 -5 11 C-5.66 11 -6.32 11 -7 11 C-5.22054913 6.95579349 -2.60470327 3.53921513 0 0 Z " fill="#FCE3DE" transform="translate(117,15)"/>
<path d="M0 0 C0 3.56172735 -0.74670717 4.36534757 -2.875 7.125 C-3.40867188 7.82882813 -3.94234375 8.53265625 -4.4921875 9.2578125 C-6 11 -6 11 -8 12 C-7.731875 11.484375 -7.46375 10.96875 -7.1875 10.4375 C-5.87523423 7.82803375 -5.87523423 7.82803375 -4.5625 4.3125 C-4.046875 3.219375 -3.53125 2.12625 -3 1 C-2.01 0.67 -1.02 0.34 0 0 Z " fill="#F6CE84" transform="translate(137,98)"/>
<path d="M0 0 C0 0.66 0 1.32 0 2 C-1.32 2 -2.64 2 -4 2 C-4 2.66 -4 3.32 -4 4 C-7 6 -7 6 -9.1875 5.625 C-9.785625 5.41875 -10.38375 5.2125 -11 5 C-7.35893156 1.86463551 -4.84781382 0 0 0 Z " fill="#BECF67" transform="translate(161,88)"/>
<path d="M0 0 C1.65 0.33 3.3 0.66 5 1 C5.33 2.32 5.66 3.64 6 5 C5.236875 4.814375 4.47375 4.62875 3.6875 4.4375 C0.91032625 3.77180827 0.91032625 3.77180827 -2 5 C-1.34 3.35 -0.68 1.7 0 0 Z " fill="#E47C6A" transform="translate(118,16)"/>
<path d="M0 0 C1.98 0 3.96 0 6 0 C5.67 0.99 5.34 1.98 5 3 C5.66 3 6.32 3 7 3 C7.33 3.99 7.66 4.98 8 6 C5.0280615 4.87548273 2.66559313 3.77706209 0 2 C0 1.34 0 0.68 0 0 Z " fill="#A8BE7C" transform="translate(131,123)"/>
<path d="M0 0 C1.875 0.3125 1.875 0.3125 4 1 C4.66 1.99 5.32 2.98 6 4 C3.36 4 0.72 4 -2 4 C-1.34 2.68 -0.68 1.36 0 0 Z " fill="#AFC13C" transform="translate(163,86)"/>
<path d="M0 0 C0.33 0 0.66 0 1 0 C1 1.98 1 3.96 1 6 C3.64 5.34 6.28 4.68 9 4 C8 6 8 6 5.6875 7.125 C3 8 3 8 -1 8 C-0.67 5.36 -0.34 2.72 0 0 Z " fill="#F7D97A" transform="translate(152,77)"/>
<path d="M0 0 C0.66 0.33 1.32 0.66 2 1 C2 3.64 2 6.28 2 9 C0.02 8.34 -1.96 7.68 -4 7 C-2.68 6.67 -1.36 6.34 0 6 C0 4.02 0 2.04 0 0 Z " fill="#A13C65" transform="translate(86,76)"/>
<path d="M0 0 C2.475 0.99 2.475 0.99 5 2 C5 2.66 5 3.32 5 4 C2.69 3.67 0.38 3.34 -2 3 C-2 3.99 -2 4.98 -2 6 C-2.99 5.67 -3.98 5.34 -5 5 C-3.35 3.35 -1.7 1.7 0 0 Z " fill="#E5482C" transform="translate(119,19)"/>
<path d="M0 0 C1.65 0 3.3 0 5 0 C4.34 1.32 3.68 2.64 3 4 C2.34 4 1.68 4 1 4 C0.67 4.99 0.34 5.98 0 7 C-0.66 6.67 -1.32 6.34 -2 6 C-1.34 4.02 -0.68 2.04 0 0 Z " fill="#B7C752" transform="translate(169,99)"/>
<path d="M0 0 C0.99 0.33 1.98 0.66 3 1 C3 1.99 3 2.98 3 4 C3.66 4 4.32 4 5 4 C5.33 5.98 5.66 7.96 6 10 C2.51668565 6.98112756 1.20842856 4.43090471 0 0 Z " fill="#EFA175" transform="translate(98,91)"/>
<path d="M0 0 C0.66 0.33 1.32 0.66 2 1 C-0.97 4.96 -0.97 4.96 -4 9 C-4.66 8.67 -5.32 8.34 -6 8 C-4.55746343 4.63408134 -2.66735273 2.48952921 0 0 Z " fill="#F6C1B7" transform="translate(136,52)"/>
<path d="M0 0 C2.0625 1.75 2.0625 1.75 4 4 C3.75 6.25 3.75 6.25 3 8 C2.34 8 1.68 8 1 8 C0.26919734 6.02253397 -0.39421747 4.01927511 -1 2 C-0.67 1.34 -0.34 0.68 0 0 Z " fill="#E7452B" transform="translate(137,42)"/>
<path d="M0 0 C4.37934119 0.51958285 8.68803391 1.05675742 13 2 C13 2.33 13 2.66 13 3 C9.37 3 5.74 3 2 3 C2 2.34 2 1.68 2 1 C1.34 0.67 0.68 0.34 0 0 Z " fill="#EC90B7" transform="translate(87,119)"/>
<path d="M0 0 C1.32 0 2.64 0 4 0 C4.28875 0.763125 4.5775 1.52625 4.875 2.3125 C5.96269013 5.15029308 5.96269013 5.15029308 8 8 C4.63820226 6.55922954 2.40843732 4.75249979 0 2 C0 1.34 0 0.68 0 0 Z " fill="#E783AF" transform="translate(30,121)"/>
<path d="M0 0 C2.31 0.33 4.62 0.66 7 1 C7.66 2.65 8.32 4.3 9 6 C5.06326356 4.68775452 2.77280706 3.08089673 0 0 Z " fill="#F1B5CE" transform="translate(71,104)"/>
<path d="M0 0 C1.32 0.99 2.64 1.98 4 3 C3.67 4.32 3.34 5.64 3 7 C2.34 6.34 1.68 5.68 1 5 C0.34 5.66 -0.32 6.32 -1 7 C-0.67 4.69 -0.34 2.38 0 0 Z " fill="#E86249" transform="translate(124,21)"/>
<path d="M0 0 C0.99 0 1.98 0 3 0 C3 0.66 3 1.32 3 2 C3.66 2.33 4.32 2.66 5 3 C4.67 3.99 4.34 4.98 4 6 C3.01 5.67 2.02 5.34 1 5 C1 4.34 1 3.68 1 3 C0.34 3 -0.32 3 -1 3 C-0.67 2.01 -0.34 1.02 0 0 Z " fill="#84A63D" transform="translate(137,123)"/>
<path d="M0 0 C1.62723299 0.45034123 3.25173664 0.91055354 4.875 1.375 C5.77992187 1.63023438 6.68484375 1.88546875 7.6171875 2.1484375 C10 3 10 3 12 5 C6.06 4.01 6.06 4.01 0 3 C0 2.01 0 1.02 0 0 Z " fill="#E57DAA" transform="translate(74,114)"/>
<path d="M0 0 C0.66 0.33 1.32 0.66 2 1 C1.34 2.65 0.68 4.3 0 6 C-0.99 6 -1.98 6 -3 6 C-3 4.35 -3 2.7 -3 1 C-2.01 0.67 -1.02 0.34 0 0 Z " fill="#E44A2F" transform="translate(122,67)"/>
<path d="M0 0 C2.35953094 2.35953094 2.49141413 3.77895617 3 7 C-0.36720387 5.60667426 -1.9859524 4.0210714 -4 1 C-2.68 1.33 -1.36 1.66 0 2 C0 1.34 0 0.68 0 0 Z " fill="#F2B6CF" transform="translate(66,96)"/>
<path d="M0 0 C1.65 0.33 3.3 0.66 5 1 C4.38125 1.5775 3.7625 2.155 3.125 2.75 C1.18652947 4.80249821 0.09985751 6.43366582 -1 9 C-2.60031344 5.79937313 -1.03173691 3.27728194 0 0 Z " fill="#D6E2C0" transform="translate(190,82)"/>
<path d="M0 0 C6.75 1.875 6.75 1.875 9 3 C8.67 4.65 8.34 6.3 8 8 C7.67 7.01 7.34 6.02 7 5 C5.37051936 3.77554716 5.37051936 3.77554716 3.4375 2.8125 C2.303125 2.214375 1.16875 1.61625 0 1 C0 0.67 0 0.34 0 0 Z " fill="#A6436B" transform="translate(80,46)"/>
<path d="M0 0 C1.98 0 3.96 0 6 0 C1.69230769 3.93846154 1.69230769 3.93846154 -1.8125 4.25 C-2.534375 4.1675 -3.25625 4.085 -4 4 C-2.68 3.67 -1.36 3.34 0 3 C0 2.01 0 1.02 0 0 Z " fill="#E7679D" transform="translate(96,127)"/>
<path d="M0 0 C0.33 0 0.66 0 1 0 C1 1.98 1 3.96 1 6 C0.01 6.33 -0.98 6.66 -2 7 C-2.125 4.625 -2.125 4.625 -2 2 C-1.34 1.34 -0.68 0.68 0 0 Z " fill="#F4A82C" transform="translate(137,92)"/>
<path d="M0 0 C1.32 0 2.64 0 4 0 C2.92598892 2.91517292 2.22189824 4.77810176 0 7 C0 4.69 0 2.38 0 0 Z " fill="#F2BB5D" transform="translate(138,91)"/>
</svg>
